<?xml version="1.0" encoding="UTF-8"?>
<svg id="Layer_1" data-name="Layer 1" xmlns="http://www.w3.org/2000/svg" xmlns:xlink="http://www.w3.org/1999/xlink" viewBox="0 0 1327.75 1393.44">
  <defs>
    <style>
      .cls-1 {
        fill: #0d4238;
      }

      .cls-1, .cls-2, .cls-3, .cls-4, .cls-5, .cls-6, .cls-7, .cls-8, .cls-9, .cls-10 {
        stroke-width: 0px;
      }

      .cls-2 {
        fill: #000;
      }

      .cls-11, .cls-12, .cls-13, .cls-14, .cls-15, .cls-16 {
        stroke-linecap: round;
        stroke-linejoin: round;
      }

      .cls-11, .cls-12, .cls-14, .cls-15 {
        stroke: #072722;
      }

      .cls-11, .cls-13, .cls-15, .cls-16 {
        stroke-width: 5px;
      }

      .cls-11, .cls-7 {
        fill: #fff;
      }

      .cls-12 {
        stroke-width: 8.4px;
      }

      .cls-12, .cls-13, .cls-14 {
        fill: #96fce4;
      }

      .cls-3, .cls-15, .cls-16, .cls-17 {
        fill: none;
      }

      .cls-4 {
        fill: #0c3d33;
      }

      .cls-13, .cls-16, .cls-18, .cls-17 {
        stroke: #000;
      }

      .cls-14 {
        stroke-width: 10px;
      }

      .cls-5 {
        fill: #d9fdf5;
      }

      .cls-19 {
        clip-path: url(#clippath);
      }

      .cls-6, .cls-18 {
        fill: #072722;
      }

      .cls-8 {
        fill: #5d9184;
      }

      .cls-9 {
        fill: #66d3b6;
      }

      .cls-18, .cls-17 {
        stroke-miterlimit: 10;
        stroke-width: 3px;
      }

      .cls-10 {
        fill: #c6c6c6;
      }
    </style>
    <clipPath id="clippath">
      <rect class="cls-3" x="127.75" width="1200" height="1200"/>
    </clipPath>
  </defs>
  <g class="cls-19">
    <g id="body">
      <path class="cls-18" d="M570.13,851.29c-2.92-13.81-175.92-36.8-289.63,59.33-36.91,31.2-141.23,137.22-155.23,186.89-1.3,4.63-6.68,26-21.45,30.64-10.82,3.4-17.57-5.04-26.55-2.04-13.9,4.64-8.74,28.49-19.98,57.21-18.42,47.07-62.17,62.72-55,87.66.24.83.57,1.53.9,2.15,12.04,22.29,63.35,24.11,71.49,24.4,11.5.41,38.39.03,71.78-14.97,55.97-25.15,81.95-69.72,98.73-99.49,87.41-155.07,77.09-154.52,100.11-184.39,28.9-37.5,228.16-131.61,224.82-147.39Z"/>
      <path class="cls-1" d="M168.15,1250.19c1.31-16.63,8.32-28.62,22.3-51.91,11.73-19.55,17.6-29.33,25.74-37.64,12.55-12.82,22.49-17.84,26.78-30.93,3.25-9.93.59-16.39,0-23.38-1.92-23.02,19.88-36.99,42.49-62.7,43.98-49.99,36.07-81.82,65.38-87.39,10.97-2.09,21.51.59,30.18,4.13-12.62,11.3-24.68,23.99-35.73,38.31-23.02,29.87-12.7,29.31-100.11,184.39-14.31,25.38-35.3,61.49-75.83,87.17-2.15-6.89-1.65-14.45-1.21-20.05Z"/>
      <path class="cls-17" d="M570.13,851.29c-2.92-13.81-175.92-36.8-289.63,59.33-36.91,31.2-141.23,137.22-155.23,186.89-1.3,4.63-6.68,26-21.45,30.64-10.82,3.4-17.57-5.04-26.55-2.04-13.9,4.64-8.74,28.49-19.98,57.21-18.42,47.07-62.17,62.72-55,87.66.24.83.57,1.53.9,2.15,12.04,22.29,63.35,24.11,71.49,24.4,11.5.41,38.39.03,71.78-14.97,55.97-25.15,81.95-69.72,98.73-99.49,87.41-155.07,77.09-154.52,100.11-184.39,28.9-37.5,228.16-131.61,224.82-147.39Z"/>
      <path class="cls-4" d="M523.46,1373.87c67.14-4.73,137.07-10.68,186.7-64.32,15.49-16.74,23.15-31.81,32.83-50.83,48.31-95.02,36.77-189.56,31.8-219.93-2.48-15.18-5.81-29.49-9.71-42.93,7,19.14,12.97,40.5,16.85,63.95,4.9,29.59,16.27,121.7-31.33,214.27-9.53,18.54-17.08,33.21-32.34,49.52-48.9,52.26-117.79,58.05-183.95,62.66-106.34,7.41-175.25,12.21-227.41-35.37-2.82-2.57-5.49-5.21-8.03-7.91,52.18,43.02,120.83,38.19,224.58,30.88Z"/>
      <path class="cls-7" d="M408.61,966.21c-21.65,18.18-31.6,43.58-42.44,71.28-3.77,9.64-14.93,39.81-19.49,115.63-3.77,62.62-5.66,93.92,1.55,111.65,24.29,59.72,100.38,95.19,167.78,93.8,10.22-.21,76.54-2.6,128.79-54.16,66.42-65.54,56.46-157.62,53.49-185.11-2.74-25.37-6.65-61.5-31.4-96.73-58.41-83.14-195.98-108.67-258.27-56.35Z"/>
      <path class="cls-6" d="M247.28,1196.26c6.21,52.43,13.29,112.35,59.63,154.64,52.15,47.58,121.07,42.78,227.41,35.37,66.15-4.61,135.05-10.41,183.95-62.66,15.26-16.31,22.81-30.99,32.34-49.52,47.6-92.57,36.22-184.68,31.33-214.27-5.4-32.63-14.84-61.21-25.48-85.4-11.14-25.33-23.61-45.83-34.15-61.15-2.73-4.69-5.9-9.7-9.58-14.88-5.3-7.43-11.63-15.19-19.23-22.73-1.2-1.2-2.45-2.4-3.72-3.58-4.56-4.27-9.53-8.42-14.97-12.38-86.04-62.8-239.26-42.85-336.86,39.33-5.4,4.54-10.62,9.27-15.66,14.19-9.97,9.73-19.19,20.2-27.5,31.38-67.42,90.65-53.7,199.26-47.5,251.66Z"/>
      <path class="cls-2" d="M722.3,913.27c31.16,43.44,52.98,93.85,62.23,146.57,5.45,34.3,6.2,69.36,2.02,103.84-4.84,40.78-17.17,80.66-36.5,116.92-13.04,26.51-29.63,48.38-53.82,65.7-46.99,33.97-106.97,38.7-162.92,42.55-37.62,2.5-75.28,5.64-113.03,4.26-18.91-.8-38.03-2.88-56.32-8.08-58.99-16.23-95.16-64.13-108.52-122.14-4.5-18.43-7.1-37.16-9.43-55.92-4.22-31.18-5.36-63.01-1.24-94.25,3.22-24.96,9.75-49.44,19.03-72.8-8.33,23.62-13.98,48.19-16.43,73.1-4.01,37.42,1.13,74.88,6.07,111.95,8.64,67.27,34.85,128.29,103.05,152.51,32.53,11.07,67.4,11.57,101.46,10.69,37.51-1.38,75.09-4.03,112.47-7.29,49.05-4.56,100.23-15.87,137.26-50.31,18.77-16.64,31.32-38.2,42.19-60.61,11.16-22.25,19.56-45.86,25.23-70.1,22.66-97.4,2.52-203.43-52.79-286.58h0Z"/>
      <path class="cls-7" d="M460.55,919.76c-22.41,18.18-32.7,43.58-43.92,71.28-3.9,9.64-15.44,39.81-20.17,115.63-3.9,62.62-5.86,93.92,1.6,111.65,25.14,59.72,103.86,95.19,173.61,93.8,10.58-.21,79.2-2.6,133.26-54.16,68.72-65.54,58.42-157.62,55.35-185.11-2.84-25.37-6.88-61.5-32.49-96.73-60.44-83.14-202.78-108.67-267.24-56.35Z"/>
      <path class="cls-10" d="M398.06,1218.31c25.14,59.72,103.86,95.19,173.61,93.8,10.58-.21,79.2-2.6,133.26-54.16,68.72-65.54,58.42-157.62,55.35-185.11-.26-2.3-.53-4.69-.82-7.16,1.31,8.05,2.15,15.57,2.91,22.32,3.08,27.5,13.38,119.57-55.35,185.11-54.06,51.56-122.68,53.95-133.26,54.16-69.75,1.38-148.47-34.08-173.61-93.8-2.5-5.95-3.94-13.44-4.61-23.12.68,2.93,1.51,5.57,2.52,7.96Z"/>
    </g>
    <g id="scarf">
      <path class="cls-13" d="M757.39,845.39c17.78,33.39,15.13,68.23,15.12,68.34h0c0,47.13-10.26,60.91-6.26,85.77.97,6.04,3.22,15.43,9.32,26.57-14.97-9.17-40.2-22.81-73.53-31.66-94.56-25.11-145.53,17.2-229.79,6.13-76.05-9.99-162.65-61.28-159.97-100.5,5.55-81.15,395.99-146.89,445.11-54.66Z"/>
      <path class="cls-9" d="M739.39,845.39c17.78,33.39,15.13,68.23,15.12,68.34h0c0,25.81-4.48,35.85-4.63,51.24-.05,5.08.32,16.32,4.87,29.03,5.57,15.53,14.81,26.06,21,32h0l-.18.07c-6.1-11.15-8.35-20.54-9.32-26.57-4-24.85,6.26-38.64,6.26-85.77h0c0-.12,2.66-34.96-15.12-68.34-17.74-33.31-80-46.02-152.57-44.83,64.69,1.09,118.32,14.31,134.57,44.83Z"/>
      <path class="cls-16" d="M757.39,845.39c17.78,33.39,15.13,68.23,15.12,68.34h0c0,47.13-10.26,60.91-6.26,85.77.97,6.04,3.22,15.43,9.32,26.57-14.97-9.17-40.2-22.81-73.53-31.66-94.56-25.11-145.53,17.2-229.79,6.13-76.05-9.99-162.65-61.28-159.97-100.5,5.55-81.15,395.99-146.89,445.11-54.66Z"/>
    </g>
    <g id="head_and_ear" data-name="head and ear">
      <g id="ear_2" data-name="ear 2">
        <g>
          <path class="cls-6" d="M725.16,622.67c-1.99,0-4-.05-5.98-.16-25.27-1.34-50.69-11.18-71.57-27.71-22.17-17.54-37.17-40.65-43.38-66.83-2.17-9.14-11.39-56.82,19.87-97.83,22.09-28.98,58.44-46.28,97.22-46.28,18.98,0,37.72,4.28,54.19,12.39,18.51,9.11,34.62,22.99,46.57,40.14,12.88,18.48,20.19,39.96,21.16,62.12.95,21.8-4.27,43.52-15.08,62.82-10.12,18.05-24.58,33.23-41.82,43.91-10.51,6.51-32.44,17.43-61.18,17.43h0Z"/>
          <path class="cls-6" d="M721.32,386.35c18.18,0,36.44,3.94,53.09,12.13,35.22,17.32,64.34,54.18,66.34,100.13,1.96,45.05-22.77,84.09-55.72,104.5-6.87,4.25-29.2,17.05-59.86,17.05-1.92,0-3.87-.05-5.85-.16-49.6-2.64-99.93-38.95-112.65-92.62-1.37-5.8-12.06-54.44,19.43-95.74,22.38-29.36,58.66-45.3,95.23-45.3M721.32,381.35c-39.56,0-76.65,17.67-99.21,47.27-31.94,41.91-22.53,90.59-20.31,99.92,6.34,26.74,21.64,50.32,44.26,68.22,21.29,16.84,47.21,26.87,72.99,28.25,2.03.11,4.09.16,6.12.16,29.36,0,51.76-11.15,62.5-17.8,17.6-10.9,32.36-26.4,42.69-44.82,11.05-19.71,16.37-41.89,15.4-64.15-.99-22.64-8.46-44.58-21.61-63.45-12.2-17.5-28.63-31.67-47.52-40.96-16.82-8.27-35.94-12.64-55.3-12.64h0Z"/>
        </g>
        <path class="cls-8" d="M835.17,501.69c-2.66-46.15-33.51-83.12-70.72-99.72-42.81-19.1-93.75-11.11-130.38,20.37,35.07-36.5,93.93-46.69,140.34-23.86,35.22,17.32,64.34,54.18,66.34,100.13,1.77,40.57-18.11,76.27-46.15,97.87,5.08-4.5,43.73-39.87,40.57-94.79Z"/>
        <path class="cls-14" d="M711.8,568.07c7.34,1.67,31.55,7.17,53.22-6.87,25.83-16.73,39.06-55.39,23.16-86.37-17.34-33.76-60.08-40.45-89.5-29.41-24.46,9.18-50.33,34.59-47.56,65.71,3.08,34.63,39.46,52.12,60.68,56.94Z"/>
      </g>
      <g id="head">
        <path class="cls-5" d="M257.86,711.46c3.75,51.91,5.44,78.68,18.15,110.15,10.39,25.72,30.13,74.59,78.23,100.13,16.32,8.67,33.63,11.32,67.59,16.27,17.14,2.5,78.1,10.68,175.13,2.92,6.69-.53,25.22-1.53,42.11-2.66-29.17,10.82-71.56,22.9-125.87,24.98-42.29,1.63-93.53,3.6-151.01-22.96-22.15-10.23-61.45-28.99-89.18-71.35-16.87-25.77-22.54-49.52-27.38-69.78-7.44-31.14-7.11-58.53-6.26-112.03.32-20.06,10.87-88.91,17.23-90.21-1.41,27.79-2.16,67.25,1.25,114.53Z"/>
        <g>
          <path class="cls-5" d="M663.27,511.16c.78-1.81,12.72,3.76,28.84,2.51,7.77-.6,14.71-2.66,20.72-5.3-6.01,12.36-15.85,18.61-20.7,21.11-23.86-12.61-29.43-17.02-28.87-18.32Z"/>
          <path class="cls-5" d="M639.65,487.16c-5.81-.58-11.98-1.87-18.38-3.2-24.17-5.03-41.31-16.75-50.58-24.24,4.5,2.18,33.79,15.82,60.19,1.67,12.71-6.81,19.5-17.25,23.41-23.41,3.63-5.72,6.28-11.48,8.22-17.03.56,1.42,1.06,2.89,1.49,4.43,5.77,20.82-3.9,44.95-24.36,61.77Z"/>
        </g>
        <path class="cls-16" d="M242.84,606.11c-2.07,8.36-2.53,32.59-3.47,81.03-1.44,74.7,2.91,97.99,6.26,112.03,4.84,20.26,10.51,44.01,27.38,69.78,27.73,42.36,67.04,61.11,89.18,71.35,57.48,26.56,108.72,24.59,151.01,22.96,75.84-2.92,128.46-25.3,154.25-36.57,39.39-17.22,51.28-29.52,55.07-33.64,39.62-43.09,35.43-108.32,35.05-113.28-1.66-21.4-6.99-30.36-6.55-59.34.42-27.31,5.29-28.44,6.02-49.93,1.91-56.05-29.48-99.36-37.34-109.62-10.79-14.08-21.81-24.01-29.73-30.35,3.21-1.44,16.45-7.81,23.47-23.47,7.03-15.68,2.94-29.83,1.88-33.17-5.64,4.63-18.62,14.01-37.86,17.21-17.71,2.94-31.93-.82-38.8-3.13,21.14-16.85,31.21-41.43,25.35-62.58-3.08-11.11-9.88-18.84-15.02-23.47-5.45,6.44-14.59,15.65-28.16,22.84-13.6,7.21-26.44,9.64-40.37,10.95-38.1,3.6-46.58-4.67-92.62-5.32-12.23-.17-35.74-1.14-63.52,6.88-10.14,2.93-23.57,7.8-40.97,17.69-39.62,22.53-120.02,68.24-140.5,151.14Z"/>
        <path class="cls-11" d="M242.84,606.11c-4.59,21.39-2.53,32.59-3.47,81.03-1.44,74.7,2.91,97.99,6.26,112.03,4.84,20.26,10.51,44.01,27.38,69.78,27.73,42.36,67.04,61.11,89.18,71.35,57.48,26.56,108.72,24.59,151.01,22.96,75.84-2.92,128.46-25.3,154.25-36.57,39.39-17.22,51.28-29.52,55.07-33.64,39.62-43.09,35.43-108.32,35.05-113.28-1.66-21.4-6.99-30.36-6.55-59.34.42-27.31,5.29-28.44,6.02-49.93,1.91-56.05-29.48-99.36-37.34-109.62-10.79-14.08-21.81-24.01-29.73-30.35,3.21-1.44,16.45-7.81,23.47-23.47,7.03-15.68,2.94-29.83,1.88-33.17-5.64,4.63-18.62,14.01-37.86,17.21-17.71,2.94-31.93-.82-38.8-3.13,21.14-16.85,31.21-41.43,25.35-62.58-3.08-11.11-9.88-18.84-15.02-23.47-5.45,6.44-14.59,15.65-28.16,22.84-13.6,7.21-26.44,9.64-40.37,10.95-38.1,3.6-46.58-4.67-92.62-5.32-12.23-.17-35.74-1.14-63.52,6.88-10.14,2.93-23.57,7.8-40.97,17.69-39.62,22.53-122.59,67.65-140.5,151.14Z"/>
      </g>
      <g id="ear_1" data-name="ear 1">
        <g>
          <path class="cls-6" d="M383.34,454.97c-1.96-9.37-6.44-24.61-17.68-39.79-23.04-31.11-57.09-38.42-67.59-40.68-9.12-1.96-51.37-11.03-90.75,15.02-36.43,24.1-53.53,67.12-50.69,105.77,4.01,54.63,46.81,86.07,59.12,95.11,10.49,7.71,20.22,12.66,27.09,15.72,10.79-.76,26.59-3.04,44.27-10.08,7.3-2.9,37.38-15.55,62.2-46.65,30.33-38,33.58-79.48,34.03-94.42Z"/>
          <path class="cls-12" d="M298.33,541.23c24.3-13.46,38.78-43.89,32.7-73.58-6.86-33.53-38.08-56.94-70.31-55.59-42.37,1.77-74.63,45.84-65.41,85.03,10.02,42.58,65.61,64.87,103.01,44.15Z"/>
          <path class="cls-8" d="M207.32,389.52c39.37-26.05,81.63-16.98,90.75-15.02,9.62,2.07,38.99,8.37,61.56,33.33-21.32-19.28-46.02-24.59-54.68-26.45-9.12-1.96-51.37-11.03-90.75,15.02-36.43,24.1-53.53,67.12-50.69,105.77,2.39,32.54,18.55,56.86,33.82,73.11-16.9-15.9-37.94-42.48-40.7-79.99-2.84-38.64,14.26-81.66,50.69-105.77Z"/>
        </g>
        <path class="cls-15" d="M383.34,454.97c-2.06-9.88-6.65-24.89-17.68-39.79-23.04-31.12-57.09-38.42-67.59-40.68-9.12-1.96-51.37-11.03-90.75,15.02-36.43,24.1-53.53,67.12-50.69,105.77,4.01,54.63,46.81,86.07,59.12,95.11,10.49,7.71,20.22,12.66,27.09,15.72"/>
      </g>
    </g>
  </g>
</svg>