<?xml version="1.0" encoding="UTF-8"?>
<svg id="eyes" xmlns="http://www.w3.org/2000/svg" viewBox="0 0 1200 1200">
  <defs>
    <style>
      .cls-1 {
        fill: #96fce4;
        stroke-width: 0px;
      }

      .cls-2 {
        fill: none;
        stroke: #000;
        stroke-miterlimit: 10;
        stroke-width: 3px;
      }
    </style>
  </defs>
  <g id="angry_eye_1" data-name="angry eye 1">
    <path class="cls-2" d="M595.38,828.9c11.84-13.46,30.56-45.19,31.2-87.94.08-5.41.3-90.72-51.77-114.88-3.49-1.62-24.17-11.22-45.39-4.25-7.94,2.6-12.74,6.47-40.42,34.04-28.13,28.01-30.57,31.38-39,34.75-16.37,6.54-36.78,5.66-52.48-2.84-12.18-6.59-15.02-14.25-34.75-46.1-22.69-36.62-34.3-55.11-47.51-63.82-6.37-4.2-30.28-18.69-58.15-13.47-33.3,6.23-51.27,36.68-63.11,56.73-31.53,53.41-26.12,108.4-23.4,132.61,3.74,33.26,7.92,70.54,38.29,98.57,8.46,7.81,29.4,28.53,59.57,28.37,31.73-.18,59.01-23.16,70.92-42.55,2.75-4.48,3.94-7.57,9.69-16.78,9.19-14.73,15.77-25.27,26.95-35.46,7.41-6.74,17.43-15.88,33.57-19.86,4.57-1.13,16.17-3.84,30.02-.24,20.79,5.41,32.43,21.35,38.77,30.02,8.09,11.07,5.41,12.34,13,23.17,6.75,9.63,19.09,27.23,40.89,32.38,29.48,6.97,54.31-13.99,56.97-16.31,1.06-.92,3.4-3.02,6.15-6.15Z"/>
    <g>
      <path class="cls-1" d="M324.46,725.47c6.76,12.22-2.42,28.8-4.86,33.2-1.27,2.3-14.37,25.02-40.57,26.81-22.99,1.56-42.4-13.92-49.43-30.67-4.56-10.89-2.61-22.38,1.3-45.38,2.55-15.01,4.94-17.39,6.88-18.52,8.02-4.69,17.38,6.7,41.4,16.78,27.22,11.42,39.25,6.9,45.27,17.78Z"/>
      <path class="cls-1" d="M353,738.5c-2.38,5.96-15.63,7.02-25.38,3.73-7.22-2.43-11.65-6.95-13.12-8.39-19.57-19.22-66.09-35.43-95.55-38.63-4.7-.51-15.19-1.36-17.81-7.48-1.59-3.71-.12-8.99,2.99-11.61,6.26-5.29,18.38.86,34.29,7.59,46.21,19.55,69.32,29.32,88.21,32.06,3.02.44,13.47,1.81,20.91,9.73,1.02,1.09,7.48,7.96,5.46,13Z"/>
      <path class="cls-1" d="M250.26,742.2c4.34,1.82,9.22-.06,11.67-3.2,4.03-5.17,1.94-14.35-3.87-16.57-5.12-1.95-12.08,1.9-13.49,7.88-1.04,4.4.94,9.9,5.68,11.89Z"/>
      <path class="cls-1" d="M288.65,770.12c2.44,1.02,5.17-.03,6.54-1.79,2.26-2.9,1.09-8.05-2.17-9.29-2.87-1.09-6.77,1.06-7.56,4.42-.58,2.47.53,5.55,3.18,6.67Z"/>
    </g>
    <g>
      <path class="cls-1" d="M507.47,741.2c-4.42,7.99,1.58,18.83,3.18,21.71.83,1.5,9.39,16.36,26.52,17.53,15.03,1.02,27.72-9.1,32.31-20.05,2.98-7.12,1.71-14.63-.85-29.67-1.67-9.81-3.23-11.37-4.5-12.11-5.25-3.06-11.36,4.38-27.07,10.97-17.79,7.47-25.66,4.51-29.6,11.62Z"/>
      <path class="cls-1" d="M488.81,749.72c1.56,3.9,10.22,4.59,16.59,2.44,4.72-1.59,7.62-4.55,8.58-5.49,12.8-12.57,43.21-23.16,62.47-25.25,3.07-.33,9.93-.89,11.65-4.89,1.04-2.43.08-5.87-1.95-7.59-4.09-3.46-12.01.56-22.42,4.96-30.21,12.78-45.32,19.17-57.67,20.96-1.98.29-8.81,1.18-13.67,6.36-.67.71-4.89,5.2-3.57,8.5Z"/>
      <path class="cls-1" d="M555.99,752.13c-2.84,1.19-6.03-.04-7.63-2.09-2.63-3.38-1.27-9.39,2.53-10.83,3.35-1.28,7.9,1.24,8.82,5.15.68,2.88-.61,6.47-3.71,7.77Z"/>
      <path class="cls-1" d="M530.89,770.39c-1.59.67-3.38-.02-4.28-1.17-1.48-1.9-.71-5.26,1.42-6.07,1.88-.72,4.43.69,4.94,2.89.38,1.61-.34,3.63-2.08,4.36Z"/>
    </g>
  </g>
</svg>