<?xml version="1.0" encoding="UTF-8"?>
<svg id="eyes" xmlns="http://www.w3.org/2000/svg" viewBox="0 0 1200 1200">
  <defs>
    <style>
      .cls-1 {
        fill: #000;
      }

      .cls-1, .cls-2, .cls-3 {
        stroke-width: 0px;
      }

      .cls-2 {
        fill: #fff;
      }

      .cls-3 {
        fill: #96fce4;
      }
    </style>
  </defs>
  <g id="cute_eye" data-name="cute eye">
    <path class="cls-3" d="M534.14,677.14c13.06,4.81,29.15,1.71,39.53-5.2,2.71-1.81,13.09-8.72,10.98-15.03-2.42-7.25-20.13-10.19-33.19-8.09-15.2,2.44-30.39,12.73-28.31,20.42,1.16,4.29,7.36,6.57,10.98,7.9Z"/>
    <path class="cls-3" d="M284.49,672.65c-3.01.29-32.58,3.1-39.59-6.88-4.65-6.62,2.67-15.98,11.13-20.86,16.84-9.7,48.97-7.86,55.98,2.5,4.31,6.37-.8,16.06-10.21,21.07-5.65,3.01-11.52,3.62-17.32,4.17Z"/>
    <g>
      <path class="cls-1" d="M551.82,791.86c24.61-14.85,22.93-50.18,22.63-54.86-.6-9.66-2.04-32.68-19.95-43.35-17.74-10.57-41.59-3.01-55.24,9.97-17.7,16.84-18.25,42.81-11.12,60.61.89,2.21,12.8,30.7,38.75,33.37,12.43,1.28,22.01-3.99,24.94-5.75Z"/>
      <path class="cls-2" d="M544.91,773.7c-3.36-.57-5.84-3.31-6.65-6.14-1.48-5.19,2.38-11.58,7.29-12.02,5.24-.46,10.69,5.95,9.21,11.64-1.04,3.98-5.4,7.28-9.85,6.52Z"/>
      <path class="cls-2" d="M528.67,746.85c6.89-5.08,8.07-12.8,8.31-15.34.87-9.23-3.94-22.03-15.09-24.55-11.15-2.52-22.02,6.72-24.55,17.26-2.27,9.46,1.92,21.08,11.51,25.19,6.55,2.81,14.28,1.53,19.82-2.56Z"/>
    </g>
    <g>
      <path class="cls-1" d="M296.55,812.92c24.07-18.25,22.02-49.76,21.46-58.32-.29-4.5-4.22-53.51-40.59-63.92-26.67-7.63-53.83,10.33-66.25,30.33-18.69,30.08-10.94,75.86,19.6,94.25,18.41,11.08,45.93,12.72,65.79-2.33Z"/>
      <path class="cls-2" d="M247.31,767.82c10.71-.51,16.98-10.74,18.51-13.53,4.58-8.34,6.39-22.09-2.49-31.42-6.46-6.78-17.36-9.96-26.59-5.91-11.77,5.16-15.21,19.6-12.75,30.02,2.45,10.39,11.84,21.38,23.33,20.84Z"/>
      <path class="cls-2" d="M278.88,793.95c4.49,1.44,9.18-.85,11.35-4.2,3.57-5.5.69-14.47-5.29-16.17-5.27-1.5-11.87,2.93-12.75,9.02-.65,4.47,1.79,9.78,6.69,11.35Z"/>
    </g>
  </g>
</svg>