<?xml version="1.0" encoding="UTF-8"?>
<svg id="eyes" xmlns="http://www.w3.org/2000/svg" viewBox="0 0 1200 1200">
  <defs>
    <style>
      .cls-1 {
        fill: #96fce4;
        stroke-width: 0px;
      }

      .cls-2 {
        fill: none;
        stroke: #000;
        stroke-miterlimit: 10;
        stroke-width: 3px;
      }
    </style>
  </defs>
  <g id="annoyed_eye" data-name="annoyed eye">
    <path class="cls-2" d="M595.38,828.9c11.84-13.46,30.56-45.19,31.2-87.94.08-5.41.3-90.72-51.77-114.88-3.49-1.62-24.17-11.22-45.39-4.25-7.94,2.6-12.74,6.47-40.42,34.04-28.13,28.01-30.57,31.38-39,34.75-16.37,6.54-36.78,5.66-52.48-2.84-12.18-6.59-15.02-14.25-34.75-46.1-22.69-36.62-34.3-55.11-47.51-63.82-6.37-4.2-30.28-18.69-58.15-13.47-33.3,6.23-51.27,36.68-63.11,56.73-31.53,53.41-26.12,108.4-23.4,132.61,3.74,33.26,7.92,70.54,38.29,98.57,8.46,7.81,29.4,28.53,59.57,28.37,31.73-.18,59.01-23.16,70.92-42.55,2.75-4.48,3.94-7.57,9.69-16.78,9.19-14.73,15.77-25.27,26.95-35.46,7.41-6.74,17.43-15.88,33.57-19.86,4.57-1.13,16.17-3.84,30.02-.24,20.79,5.41,32.43,21.35,38.77,30.02,8.09,11.07,5.41,12.34,13,23.17,6.75,9.63,19.09,27.23,40.89,32.38,29.48,6.97,54.31-13.99,56.97-16.31,1.06-.92,3.4-3.02,6.15-6.15Z"/>
    <path class="cls-1" d="M337.27,742.88l-109.08-9.99c-1.17-2.09-3.68-7.24-3.32-14.15.43-8.11,4.55-13.55,6.02-15.32l109.08,9.99c1.16,2.62,3.5,8.89,2.3,16.85-.91,6-3.43,10.33-5,12.62Z"/>
    <path class="cls-1" d="M567.19,755.33l-84.98-7.6c-.88-2.06-2.75-7.15-2.34-14.05.48-8.1,3.79-13.62,4.97-15.42,28.33,2.53,56.65,5.07,84.98,7.6.86,2.59,2.58,8.79,1.49,16.77-.81,6.01-2.86,10.38-4.13,12.7Z"/>
  </g>
</svg>