<?xml version="1.0" encoding="UTF-8"?>
<svg id="eyes" xmlns="http://www.w3.org/2000/svg" viewBox="0 0 1200 1200">
  <defs>
    <style>
      .cls-1 {
        fill: #96fce4;
        stroke-width: 0px;
      }

      .cls-2 {
        fill: none;
        stroke: #000;
        stroke-miterlimit: 10;
        stroke-width: 3px;
      }
    </style>
  </defs>
  <g id="Mischief_eye" data-name="Mischief eye">
    <path class="cls-2" d="M595.38,828.9c11.84-13.46,30.56-45.19,31.2-87.94.08-5.41.3-90.72-51.77-114.88-3.49-1.62-24.17-11.22-45.39-4.25-7.94,2.6-12.74,6.47-40.42,34.04-28.13,28.01-30.57,31.38-39,34.75-16.37,6.54-36.78,5.66-52.48-2.84-12.18-6.59-15.02-14.25-34.75-46.1-22.69-36.62-34.3-55.11-47.51-63.82-6.37-4.2-30.28-18.69-58.15-13.47-33.3,6.23-51.27,36.68-63.11,56.73-31.53,53.41-26.12,108.4-23.4,132.61,3.74,33.26,7.92,70.54,38.29,98.57,8.46,7.81,29.4,28.53,59.57,28.37,31.73-.18,59.01-23.16,70.92-42.55,2.75-4.48,3.94-7.57,9.69-16.78,9.19-14.73,15.77-25.27,26.95-35.46,7.41-6.74,17.43-15.88,33.57-19.86,4.57-1.13,16.17-3.84,30.02-.24,20.79,5.41,32.43,21.35,38.77,30.02,8.09,11.07,5.41,12.34,13,23.17,6.75,9.63,19.09,27.23,40.89,32.38,29.48,6.97,54.31-13.99,56.97-16.31,1.06-.92,3.4-3.02,6.15-6.15Z"/>
    <path class="cls-1" d="M339.67,769.39c-8.63,6.53-17.01-5.4-36.09-11.27-6.21-1.91-33.83-9.4-59.35,5.12-9.43,5.37-13.96,11.12-21.65,9.22-9-2.22-16.86-13.57-18.45-25.6-2.29-17.42,9.2-31.48,14.44-37.89,20.53-25.13,50.36-22.62,64.96-21.51,13.56,1.03,28.26,2.14,42.51,15.36,2.89,2.68,24.02,22.28,21.65,47.11-.26,2.76-1.37,14.43-8.02,19.46Z"/>
    <path class="cls-1" d="M571.66,759.43c-5.3,3.41-9.75-3.76-20.69-7.87-3.56-1.34-19.44-6.71-34.93.63-5.72,2.71-8.6,5.84-13.02,4.45-5.18-1.63-9.35-8.44-9.82-15.41-.68-10.08,6.58-17.71,9.89-21.18,12.98-13.62,30.33-11.02,38.84-9.82,7.89,1.12,16.46,2.33,24.29,10.47,1.59,1.65,13.21,13.72,10.88,27.87-.26,1.57-1.35,8.23-5.44,10.85Z"/>
  </g>
</svg>