<?xml version="1.0" encoding="UTF-8"?>
<svg id="eyes" xmlns="http://www.w3.org/2000/svg" viewBox="0 0 1200 1200">
  <defs>
    <style>
      .cls-1 {
        fill: #96fce4;
        stroke-width: 0px;
      }

      .cls-2 {
        fill: none;
        stroke: #000;
        stroke-miterlimit: 10;
        stroke-width: 3px;
      }
    </style>
  </defs>
  <g id="sad_eye" data-name="sad eye">
    <path class="cls-2" d="M595.38,828.9c11.84-13.46,30.56-45.19,31.2-87.94.08-5.41.3-90.72-51.77-114.88-3.49-1.62-24.17-11.22-45.39-4.25-7.94,2.6-12.74,6.47-40.42,34.04-28.13,28.01-30.57,31.38-39,34.75-16.37,6.54-36.78,5.66-52.48-2.84-12.18-6.59-15.02-14.25-34.75-46.1-22.69-36.62-34.3-55.11-47.51-63.82-6.37-4.2-30.28-18.69-58.15-13.47-33.3,6.23-51.27,36.68-63.11,56.73-31.53,53.41-26.12,108.4-23.4,132.61,3.74,33.26,7.92,70.54,38.29,98.57,8.46,7.81,29.4,28.53,59.57,28.37,31.73-.18,59.01-23.16,70.92-42.55,2.75-4.48,3.94-7.57,9.69-16.78,9.19-14.73,15.77-25.27,26.95-35.46,7.41-6.74,17.44-15.88,33.57-19.86,4.57-1.13,16.17-3.84,30.02-.24,20.79,5.41,32.43,21.35,38.77,30.02,8.09,11.07,5.41,12.34,13,23.17,6.75,9.63,19.09,27.23,40.89,32.38,29.48,6.97,54.31-13.99,56.97-16.31,1.06-.92,3.4-3.02,6.15-6.15Z"/>
    <g>
      <path class="cls-1" d="M356.86,706.85c-3.05,4.4-10.25,13.78-21.75,22.72-11.92,9.37-28.48,18.34-49.71,20.87-4,.48-7.88.69-11.61.69-6.92,0-13.4-.74-19.37-1.93-15.11-3.02-26.86-8.97-33.91-13.3-3.9-2.4-5.14-7.54-2.74-11.44,2.43-3.93,7.54-5.14,11.47-2.74,5.95,3.64,15.92,8.68,28.7,11.18,7.59,1.52,16.16,2.12,25.48,1,15.92-1.9,28.7-8.16,38.38-15.11,11.44-8.21,18.56-17.39,21.39-21.46,2.62-3.78,7.8-4.71,11.59-2.09,3.78,2.64,4.71,7.83,2.07,11.61Z"/>
      <path class="cls-1" d="M339.11,760.41c-4.04,16.85-16.73,25.39-20.68,27.93-4.5,2.95-18.94,12.33-35.21,7.3-19.99-6.16-25.7-28.72-26.74-32.81-.64-2.55-1.95-7.66-2.05-13.63-.12-5.14.67-10.95,3.52-16.3,7.59,1.52,16.16,2.12,25.48,1,15.92-1.9,28.7-8.16,38.38-15.11,5.45,2.57,10.11,6.16,13.3,10.78.12.14.24.29.33.45,8.04,12.06,4.31,27.7,3.66,30.38Z"/>
    </g>
    <g>
      <path class="cls-1" d="M494.2,721.78c1.69,2.44,5.67,7.62,12.03,12.57,6.6,5.19,15.76,10.15,27.51,11.55,2.21.26,4.36.38,6.43.38,3.83,0,7.41-.41,10.72-1.07,8.36-1.67,14.87-4.96,18.76-7.36,2.16-1.33,2.84-4.17,1.51-6.33-1.34-2.17-4.17-2.84-6.35-1.51-3.29,2.01-8.81,4.81-15.88,6.19-4.2.84-8.94,1.17-14.1.55-8.81-1.05-15.88-4.52-21.24-8.36-6.33-4.54-10.27-9.62-11.84-11.88-1.45-2.09-4.32-2.61-6.41-1.16-2.09,1.46-2.61,4.33-1.15,6.43Z"/>
      <path class="cls-1" d="M504.02,751.42c2.24,9.32,9.26,14.05,11.44,15.46,2.49,1.63,10.48,6.82,19.49,4.04,11.06-3.41,14.22-15.89,14.8-18.16.36-1.41,1.08-4.24,1.13-7.54.07-2.84-.37-6.06-1.95-9.02-4.2.84-8.94,1.17-14.1.55-8.81-1.05-15.88-4.52-21.24-8.36-3.02,1.42-5.6,3.41-7.36,5.96-.07.08-.13.16-.18.25-4.45,6.68-2.38,15.33-2.03,16.81Z"/>
    </g>
  </g>
</svg>