<?xml version="1.0" encoding="UTF-8"?>
<svg id="eyes" xmlns="http://www.w3.org/2000/svg" viewBox="0 0 1200 1200">
  <defs>
    <style>
      .cls-1 {
        fill: #96fce4;
        stroke-width: 0px;
      }

      .cls-2 {
        fill: none;
        stroke: #000;
        stroke-miterlimit: 10;
        stroke-width: 3px;
      }
    </style>
  </defs>
  <g id="angry_eye_2" data-name="angry eye 2">
    <path class="cls-2" d="M595.38,828.9c11.84-13.46,30.56-45.19,31.2-87.94.08-5.41.3-90.72-51.77-114.88-3.49-1.62-24.17-11.22-45.39-4.25-7.94,2.6-12.74,6.47-40.42,34.04-28.13,28.01-30.57,31.38-39,34.75-16.37,6.54-36.78,5.66-52.48-2.84-12.18-6.59-15.02-14.25-34.75-46.1-22.69-36.62-34.3-55.11-47.51-63.82-6.37-4.2-30.28-18.69-58.15-13.47-33.3,6.23-51.27,36.68-63.11,56.73-31.53,53.41-26.12,108.4-23.4,132.61,3.74,33.26,7.92,70.54,38.29,98.57,8.46,7.81,29.4,28.53,59.57,28.37,31.73-.18,59.01-23.16,70.92-42.55,2.75-4.48,3.94-7.57,9.69-16.78,9.19-14.73,15.77-25.27,26.95-35.46,7.41-6.74,17.44-15.88,33.57-19.86,4.57-1.13,16.17-3.84,30.02-.24,20.79,5.41,32.43,21.35,38.77,30.02,8.09,11.07,5.41,12.34,13,23.17,6.75,9.63,19.09,27.23,40.89,32.38,29.48,6.97,54.31-13.99,56.97-16.31,1.06-.92,3.4-3.02,6.15-6.15Z"/>
    <path class="cls-1" d="M376.74,720.8c-.83-.71-1.91-1.04-3-.92-1.71.2-2.5,1.28-3.18,2.23-4.27,5.87-8.54,10.78-12.44,14.79-.98.72-1.98,1.35-3,1.87-12.09,6.09-39.41.24-100.89-62.18-.92-.94-2.26-1.35-3.55-1.09-1.29.26-2.36,1.15-2.86,2.37-3.6,8.92-10.91,32.45-.96,58.16,7.97,20.6,19.86,33.75,35.35,39.08,2.4.83,4.79,1.43,7.17,1.83,27.28,4.65,53.21-16.34,63.49-24.66,2.91-2.36,6.53-5.54,10.52-9.62,8.12-6.34,14.47-16.75,14.68-18.43.16-1.3-.34-2.59-1.33-3.44Z"/>
    <path class="cls-1" d="M470.29,724.12c.54-.47,1.26-.69,1.98-.62,1.13.13,1.65.83,2.11,1.46,2.84,3.86,5.67,7.08,8.26,9.72.65.47,1.31.89,1.98,1.22,8,3.98,26,.02,66.33-41.37.61-.62,1.49-.9,2.34-.73.85.16,1.56.75,1.89,1.55,2.41,5.87,7.31,21.37.84,38.37-5.18,13.62-12.98,22.34-23.18,25.91-1.58.55-3.15.96-4.72,1.24-17.98,3.17-35.16-10.59-41.97-16.05-1.93-1.54-4.33-3.63-6.98-6.31-5.38-4.16-9.6-11-9.75-12.11-.11-.85.22-1.71.87-2.27Z"/>
  </g>
</svg>