<?xml version="1.0" encoding="UTF-8"?>
<svg id="eyes" xmlns="http://www.w3.org/2000/svg" viewBox="0 0 1200 1200">
  <defs>
    <style>
      .cls-1 {
        opacity: .54;
      }

      .cls-2 {
        fill: #45e5bb;
      }

      .cls-2, .cls-3 {
        stroke-width: 0px;
      }

      .cls-3 {
        fill: #96fce4;
      }

      .cls-4 {
        fill: none;
        stroke: #000;
        stroke-miterlimit: 10;
        stroke-width: 3px;
      }
    </style>
  </defs>
  <g id="star_eye" data-name="star eye">
    <path class="cls-4" d="M595.38,828.9c11.84-13.46,30.56-45.19,31.2-87.94.08-5.41.3-90.72-51.77-114.88-3.49-1.62-24.17-11.22-45.39-4.25-7.94,2.6-12.74,6.47-40.42,34.04-28.13,28.01-30.57,31.38-39,34.75-16.37,6.54-36.78,5.66-52.48-2.84-12.18-6.59-15.02-14.25-34.75-46.1-22.69-36.62-34.3-55.11-47.51-63.82-6.37-4.2-30.28-18.69-58.15-13.47-33.3,6.23-51.27,36.68-63.11,56.73-31.53,53.41-26.12,108.4-23.4,132.61,3.74,33.26,7.92,70.54,38.29,98.57,8.46,7.81,29.4,28.53,59.57,28.37,31.73-.18,59.01-23.16,70.92-42.55,2.75-4.48,3.94-7.57,9.69-16.78,9.19-14.73,15.77-25.27,26.95-35.46,7.41-6.74,17.44-15.88,33.57-19.86,4.57-1.13,16.17-3.84,30.02-.24,20.79,5.41,32.43,21.35,38.77,30.02,8.09,11.07,5.41,12.34,13,23.17,6.75,9.63,19.09,27.23,40.89,32.38,29.48,6.97,54.31-13.99,56.97-16.31,1.06-.92,3.4-3.02,6.15-6.15Z"/>
    <g>
      <path class="cls-3" d="M284.68,798.06c-5.76.43-11.28-2.36-14.52-7.14l-15.65-23.08c-.16-.25-.36-.47-.59-.69-.34-.32-.64-.51-1.07-.69l-25.16-10.5c-4.22-1.76-7.73-5.05-9.32-9.33-2.53-6.79-.23-14.19,5.31-18.39l22.16-16.8c.45-.34.88-.76,1.26-1.24.42-.52.75-1.07.99-1.65l10.94-25.82c2.24-5.29,7.15-8.97,12.85-9.64.08,0,.16-.02.24-.03,5.62-.58,11.14,1.86,14.5,6.41l16.65,22.56c.5.67,1.07,1.22,1.74,1.66.4.26.83.49,1.26.66l27.88,11.11c6.65,2.65,10.87,9.48,9.95,16.92-.58,4.65-3.34,8.75-7.21,11.39l-24.39,16.69c-.46.31-.89.68-1.28,1.11-.54.58-.98,1.23-1.3,1.91l-11.95,25.41c-2.39,5.08-7.27,8.53-12.84,9.1-.15.02-.31.03-.46.04Z"/>
      <g class="cls-1">
        <path class="cls-2" d="M287.63,776.6c-.19.02-.39.03-.59.04l-5.67.16c-4.3.12-7.92-3.17-8.21-7.46-.17-2.57-1.16-9.09-6.64-14.18-7.19-6.69-16.7-5.5-17.75-5.35-2.11.3-4.25-.23-5.96-1.51-1.71-1.28-2.83-3.18-3.13-5.29l-.76-5.39c-.3-2.12.26-4.28,1.56-5.98,1.3-1.7,3.24-2.81,5.36-3.08,2.23-.28,9.92-1.72,15.46-8.66,5.49-6.88,5.24-14.66,5.03-16.88-.4-4.25,2.61-8.06,6.83-8.67l5.18-.74c4.34-.67,8.32,2.33,9.03,6.62.41,2.53,2.4,11.2,10.55,16.56,6.03,3.96,12.26,4.06,15.43,3.78,4.36-.39,8.23,2.79,8.68,7.15l.66,6.47c.44,4.3-2.61,8.16-6.89,8.74-2.63.35-9.31,1.8-14.62,7.52-6.4,6.9-6.52,15.39-6.41,17.83.1,2.14-.66,4.24-2.12,5.81-1.33,1.43-3.12,2.32-5.05,2.52Z"/>
      </g>
    </g>
    <g>
      <path class="cls-3" d="M520.24,780.98c-3.76-.5-6.93-3.04-8.37-6.55l-6.93-16.95c-.07-.18-.17-.35-.29-.52-.17-.25-.34-.41-.59-.59l-14.75-10.15c-2.47-1.7-4.28-4.29-4.73-7.26-.71-4.71,1.77-9.15,5.9-11.1l16.51-7.8c.34-.16.67-.37.98-.63.34-.28.62-.59.86-.92l10.52-15.11c2.15-3.09,5.81-4.8,9.56-4.46.05,0,.11.01.16.02,3.69.39,6.91,2.7,8.45,6.08l7.65,16.75c.23.5.52.93.9,1.3.22.22.46.42.72.59l16.41,10.91c3.91,2.6,5.7,7.56,4.1,12.22-1,2.91-3.33,5.17-6.17,6.35l-17.93,7.43c-.34.14-.66.32-.97.54-.43.3-.79.66-1.09,1.05l-11.11,14.71c-2.22,2.94-5.82,4.5-9.48,4.11-.1-.01-.2-.02-.3-.04Z"/>
      <g class="cls-1">
        <path class="cls-2" d="M525.04,767.58c-.13-.01-.25-.03-.38-.05l-3.67-.66c-2.78-.5-4.66-3.11-4.27-5.9.24-1.67.48-6-2.35-10.01-3.72-5.27-9.99-5.79-10.68-5.84-1.4-.09-2.7-.72-3.62-1.77-.92-1.05-1.39-2.43-1.3-3.82l.24-3.57c.09-1.41.75-2.71,1.81-3.63,1.07-.92,2.46-1.37,3.86-1.25,1.47.12,6.61.23,11.11-3.48,4.46-3.68,5.35-8.71,5.51-10.16.32-2.78,2.77-4.83,5.56-4.64l3.43.22c2.88.15,5.03,2.62,4.91,5.48-.08,1.68.03,7.52,4.54,12.07,3.34,3.36,7.33,4.27,9.41,4.51,2.86.34,4.91,2.91,4.61,5.77l-.45,4.25c-.3,2.82-2.78,4.89-5.61,4.69-1.74-.13-6.23-.11-10.41,2.85-5.04,3.57-6.27,9.01-6.53,10.59-.22,1.39-1,2.63-2.15,3.45-1.05.74-2.32,1.07-3.58.94Z"/>
      </g>
    </g>
  </g>
</svg>