<?xml version="1.0" encoding="UTF-8"?>
<svg id="eyes" xmlns="http://www.w3.org/2000/svg" viewBox="0 0 1200 1200">
  <defs>
    <style>
      .cls-1 {
        fill: #96fce4;
        stroke-width: 0px;
      }

      .cls-2 {
        fill: none;
        stroke: #000;
        stroke-miterlimit: 10;
        stroke-width: 3px;
      }
    </style>
  </defs>
  <g id="satisfied_eye" data-name="satisfied eye">
    <path class="cls-2" d="M595.38,828.9c11.84-13.46,30.56-45.19,31.2-87.94.08-5.41.3-90.72-51.77-114.88-3.49-1.62-24.17-11.22-45.39-4.25-7.94,2.6-12.74,6.47-40.42,34.04-28.13,28.01-30.57,31.38-39,34.75-16.37,6.54-36.78,5.66-52.48-2.84-12.18-6.59-15.02-14.25-34.75-46.1-22.69-36.62-34.3-55.11-47.51-63.82-6.37-4.2-30.28-18.69-58.15-13.47-33.3,6.23-51.27,36.68-63.11,56.73-31.53,53.41-26.12,108.4-23.4,132.61,3.74,33.26,7.92,70.54,38.29,98.57,8.46,7.81,29.4,28.53,59.57,28.37,31.73-.18,59.01-23.16,70.92-42.55,2.75-4.48,3.94-7.57,9.69-16.78,9.19-14.73,15.77-25.27,26.95-35.46,7.41-6.74,17.43-15.88,33.57-19.86,4.57-1.13,16.17-3.84,30.02-.24,20.79,5.41,32.43,21.35,38.77,30.02,8.09,11.07,5.41,12.34,13,23.17,6.75,9.63,19.09,27.23,40.89,32.38,29.48,6.97,54.31-13.99,56.97-16.31,1.06-.92,3.4-3.02,6.15-6.15Z"/>
    <path class="cls-1" d="M324.33,743.41c-5.38,1.12-11.13-1.07-14.32-5.94-8.03-12.28-22.23-19.27-36.18-17.81-16.27,1.72-29.71,14.08-33.44,30.78-1.65,7.41-9,12.08-16.41,10.43-7.41-1.65-12.08-9-10.43-16.41,6.29-28.24,29.36-49.22,57.4-52.15,24.47-2.57,48.26,8.97,62.08,30.11,4.15,6.36,2.37,14.88-3.99,19.03-1.48.97-3.08,1.61-4.71,1.95Z"/>
    <path class="cls-1" d="M555.42,751.15c-3.23-.68-5.87-3.27-6.45-6.73-1.45-8.7-7.58-15.97-15.61-18.53-9.37-2.98-19.75.58-25.83,8.87-2.7,3.68-7.87,4.48-11.55,1.78-3.68-2.7-4.48-7.87-1.78-11.55,10.28-14.02,28.03-20,44.17-14.85,14.09,4.49,24.39,16.58,26.89,31.55.75,4.5-2.29,8.76-6.79,9.51-1.05.17-2.08.14-3.06-.06Z"/>
  </g>
</svg>