<?xml version="1.0" encoding="UTF-8"?>
<svg id="eyes" xmlns="http://www.w3.org/2000/svg" viewBox="0 0 1200 1200">
  <defs>
    <style>
      .cls-1 {
        fill: #96fce4;
        stroke-width: 0px;
      }

      .cls-2 {
        fill: none;
        stroke: #000;
        stroke-miterlimit: 10;
        stroke-width: 3px;
      }
    </style>
  </defs>
  <g id="eye_with_lash" data-name="eye with lash">
    <path class="cls-2" d="M595.38,828.9c11.84-13.46,30.56-45.19,31.2-87.94.08-5.41.3-90.72-51.77-114.88-3.49-1.62-24.17-11.22-45.39-4.25-7.94,2.6-12.74,6.47-40.42,34.04-28.13,28.01-30.57,31.38-39,34.75-16.37,6.54-36.78,5.66-52.48-2.84-12.18-6.59-15.02-14.25-34.75-46.1-22.69-36.62-34.3-55.11-47.51-63.82-6.37-4.2-30.28-18.69-58.15-13.47-33.3,6.23-51.27,36.68-63.11,56.73-31.53,53.41-26.12,108.4-23.4,132.61,3.74,33.26,7.92,70.54,38.29,98.57,8.46,7.81,29.4,28.53,59.57,28.37,31.73-.18,59.01-23.16,70.92-42.55,2.75-4.48,3.94-7.57,9.69-16.78,9.19-14.73,15.77-25.27,26.95-35.46,7.41-6.74,17.44-15.88,33.57-19.86,4.57-1.13,16.17-3.84,30.02-.24,20.79,5.41,32.43,21.35,38.77,30.02,8.09,11.07,5.41,12.34,13,23.17,6.75,9.63,19.09,27.23,40.89,32.38,29.48,6.97,54.31-13.99,56.97-16.31,1.06-.92,3.4-3.02,6.15-6.15Z"/>
    <g>
      <g>
        <path class="cls-1" d="M312.3,792.65c24.07-18.25,22.02-49.76,21.46-58.32-.29-4.5-4.22-53.51-40.59-63.92-26.67-7.63-53.83,10.33-66.25,30.33-18.69,30.08-10.94,75.86,19.6,94.25,18.41,11.08,45.93,12.72,65.79-2.33Z"/>
        <path class="cls-1" d="M263.05,747.55c10.71-.51,16.98-10.74,18.51-13.53,4.58-8.34,6.39-22.09-2.49-31.42-6.46-6.78-17.36-9.96-26.59-5.91-11.77,5.16-15.21,19.6-12.75,30.02,2.45,10.39,11.84,21.38,23.33,20.84Z"/>
        <path class="cls-1" d="M294.62,773.68c4.49,1.44,9.18-.85,11.35-4.2,3.57-5.5.69-14.47-5.29-16.17-5.27-1.5-11.87,2.93-12.75,9.02-.65,4.47,1.79,9.78,6.69,11.35Z"/>
      </g>
      <path class="cls-1" d="M254.6,690.98c-.86-.6-1.73-1.2-2.58-1.81-.4-.29-.8-.58-1.19-.87-.23-.17-.45-.34-.67-.5-.38-.29-.45-.34-.21-.16.23.18.16.12-.21-.17-.22-.17-.44-.35-.65-.53-.43-.35-.86-.72-1.28-1.09-.73-.64-1.44-1.31-2.13-2s-1.33-1.42-1.95-2.16c-.86-1.02.46.69-.32-.41-.32-.45-.64-.9-.93-1.37-.51-.8-.98-1.63-1.4-2.48-.18-.36-.35-.73-.52-1.1-.21-.48-.22-.49-.02-.04-.1-.25-.2-.5-.29-.76-.66-1.78-1.16-3.62-1.53-5.48-.11-.54-.19-1.08-.29-1.62-.18-.99.06.66-.07-.44-.11-.96-.2-1.92-.27-2.89-.26-4.02-.1-8.05.23-12.06.19-2.35-2.21-4.6-4.5-4.5-2.6.12-4.3,1.98-4.5,4.5-.69,8.52-.67,17.57,2.53,25.63,1.72,4.34,4.18,8.2,7.47,11.53s6.99,5.94,10.75,8.54c1.94,1.34,5.08.42,6.16-1.61,1.21-2.29.46-4.72-1.61-6.16h0Z"/>
      <path class="cls-1" d="M239.19,699.31c.33-3.06-2-5.01-4.06-6.78-1.56-1.34-3.03-2.8-4.39-4.35-.34-.39-.67-.78-1-1.18-.11-.14-1.1-1.42-.49-.61-.54-.72-1.07-1.45-1.57-2.2-1.15-1.71-2.18-3.5-3.1-5.35-.23-.46-.45-.93-.67-1.4-.08-.17-.71-1.67-.31-.7-.38-.96-.75-1.92-1.08-2.9-.62-1.83-1.12-3.7-1.51-5.59-.1-.5-.2-1.01-.29-1.52-.03-.2-.28-1.84-.13-.71-.13-1.02-.23-2.05-.29-3.07-.13-2.06-.1-4.12.05-6.18.17-2.35-2.19-4.6-4.5-4.5-2.59.12-4.32,1.98-4.5,4.5-.63,8.68,1.2,17.33,4.8,25.21,1.78,3.89,4.09,7.43,6.74,10.77,1.28,1.61,2.67,3.14,4.16,4.56.74.71,1.51,1.4,2.31,2.06.38.32.76.68,1.16.97.35.37.36.35.02-.08-.18-1.44-.29-1.76-.34-.97-.26,2.35,2.25,4.6,4.5,4.5,2.66-.12,4.23-1.98,4.5-4.5h0Z"/>
      <path class="cls-1" d="M228.41,710.18c-2.65-2.47-5.16-5.07-7.52-7.82-.58-.68-1.15-1.36-1.71-2.06-.28-.35-.56-.7-.83-1.05-.12-.16-.24-.32-.37-.47.29.36.45.59.07.08-1.11-1.46-2.17-2.96-3.2-4.48-1.31-1.95-4.02-2.99-6.16-1.61-1.94,1.25-3.02,4.07-1.61,6.16,4.31,6.41,9.31,12.35,14.96,17.61,1.72,1.6,4.68,1.84,6.36,0s1.84-4.65,0-6.36h0Z"/>
    </g>
    <g>
      <g>
        <path class="cls-1" d="M518.81,776.83c-13.12-9.94-12-27.11-11.69-31.78.16-2.45,2.3-29.16,22.12-34.83,14.53-4.16,29.33,5.63,36.1,16.52,10.19,16.39,5.96,41.34-10.68,51.35-10.03,6.04-25.03,6.93-35.85-1.27Z"/>
        <path class="cls-1" d="M545.64,752.25c-5.83-.28-9.25-5.85-10.08-7.37-2.5-4.54-3.48-12.04,1.36-17.12,3.52-3.69,9.46-5.43,14.49-3.22,6.41,2.81,8.29,10.68,6.95,16.36-1.33,5.66-6.45,11.65-12.71,11.36Z"/>
        <path class="cls-1" d="M528.44,766.49c-2.44.78-5-.46-6.19-2.29-1.94-3-.38-7.88,2.88-8.81,2.87-.82,6.47,1.6,6.95,4.92.35,2.44-.98,5.33-3.64,6.19Z"/>
      </g>
      <path class="cls-1" d="M553,726.13c4.28-2.96,8.1-6.15,10.11-11.09,1.82-4.49,1.85-9.53,1.47-14.28-.13-1.62-1.29-3-3-3-1.52,0-3.13,1.38-3,3,.33,4.12.41,8.15-.99,12-1.29,3.55-4.49,6.03-7.61,8.19-1.33.92-1.94,2.63-1.08,4.1.77,1.32,2.77,2,4.1,1.08h0Z"/>
      <path class="cls-1" d="M564.09,728.96c0,.5-.71,1.27.11.59.18-.15.37-.3.55-.46.4-.35.8-.71,1.18-1.09.85-.84,1.63-1.75,2.36-2.7,1.4-1.8,2.6-3.72,3.52-5.81,1.91-4.31,2.88-8.98,2.55-13.7-.11-1.62-1.3-3-3-3-1.54,0-3.11,1.38-3,3,.29,4.19-.47,8.28-2.34,11.96-.94,1.85-2.05,3.53-3.35,4.97-1.7,1.89-4.62,3.4-4.57,6.24.07,3.86,6.07,3.87,6,0h0Z"/>
      <path class="cls-1" d="M568.37,740.74c3.11-2.9,5.87-6.18,8.24-9.71.88-1.31.29-3.38-1.08-4.1-1.51-.8-3.17-.32-4.1,1.08-.63.94-1.3,1.86-1.99,2.76l.47-.61c-1.75,2.27-3.69,4.39-5.78,6.34-1.15,1.07-1.16,3.17,0,4.24,1.23,1.13,3.01,1.14,4.24,0h0Z"/>
    </g>
  </g>
</svg>