<?xml version="1.0" encoding="UTF-8"?>
<svg id="eyes" xmlns="http://www.w3.org/2000/svg" viewBox="0 0 1200 1200">
  <defs>
    <style>
      .cls-1 {
        fill: #96fce4;
        stroke-width: 0px;
      }

      .cls-2 {
        fill: none;
        stroke: #000;
        stroke-miterlimit: 10;
        stroke-width: 3px;
      }
    </style>
  </defs>
  <g id="bold_eye" data-name="bold eye">
    <path class="cls-2" d="M595.38,828.9c11.84-13.46,30.56-45.19,31.2-87.94.08-5.41.3-90.72-51.77-114.88-3.49-1.62-24.17-11.22-45.39-4.25-7.94,2.6-12.74,6.47-40.42,34.04-28.13,28.01-30.57,31.38-39,34.75-16.37,6.54-36.78,5.66-52.48-2.84-12.18-6.59-15.02-14.25-34.75-46.1-22.69-36.62-34.3-55.11-47.51-63.82-6.37-4.2-30.28-18.69-58.15-13.47-33.3,6.23-51.27,36.68-63.11,56.73-31.53,53.41-26.12,108.4-23.4,132.61,3.74,33.26,7.92,70.54,38.29,98.57,8.46,7.81,29.4,28.53,59.57,28.37,31.73-.18,59.01-23.16,70.92-42.55,2.75-4.48,3.94-7.57,9.69-16.78,9.19-14.73,15.77-25.27,26.95-35.46,7.41-6.74,17.43-15.88,33.57-19.86,4.57-1.13,16.17-3.84,30.02-.24,20.79,5.41,32.43,21.35,38.77,30.02,8.09,11.07,5.41,12.34,13,23.17,6.75,9.63,19.09,27.23,40.89,32.38,29.48,6.97,54.31-13.99,56.97-16.31,1.06-.92,3.4-3.02,6.15-6.15Z"/>
    <g>
      <path class="cls-1" d="M545.69,787.57c24.61-14.85,22.93-50.18,22.63-54.86-.6-9.66-2.04-32.68-19.95-43.35-17.74-10.57-41.59-3.01-55.24,9.97-17.7,16.84-18.25,42.81-11.12,60.61.89,2.21,12.8,30.7,38.75,33.37,12.43,1.28,22.01-3.99,24.94-5.75Z"/>
      <path class="cls-1" d="M538.78,769.41c-3.36-.57-5.84-3.31-6.65-6.14-1.48-5.19,2.38-11.58,7.29-12.02,5.24-.46,10.69,5.95,9.21,11.64-1.04,3.98-5.4,7.28-9.85,6.52Z"/>
      <path class="cls-1" d="M522.54,742.56c6.89-5.08,8.07-12.8,8.31-15.34.87-9.23-3.94-22.03-15.09-24.55-11.15-2.52-22.02,6.72-24.55,17.26-2.27,9.46,1.92,21.08,11.51,25.19,6.55,2.81,14.28,1.53,19.82-2.56Z"/>
    </g>
    <g>
      <path class="cls-1" d="M312.3,792.65c24.07-18.25,22.02-49.76,21.46-58.32-.29-4.5-4.22-53.51-40.59-63.92-26.67-7.63-53.83,10.33-66.25,30.33-18.69,30.08-10.94,75.86,19.6,94.25,18.41,11.08,45.93,12.72,65.79-2.33Z"/>
      <path class="cls-1" d="M263.05,747.55c10.71-.51,16.98-10.74,18.51-13.53,4.58-8.34,6.39-22.09-2.49-31.42-6.46-6.78-17.36-9.96-26.59-5.91-11.77,5.16-15.21,19.6-12.75,30.02,2.45,10.39,11.84,21.38,23.33,20.84Z"/>
      <path class="cls-1" d="M294.62,773.68c4.49,1.44,9.18-.85,11.35-4.2,3.57-5.5.69-14.47-5.29-16.17-5.27-1.5-11.87,2.93-12.75,9.02-.65,4.47,1.79,9.78,6.69,11.35Z"/>
    </g>
  </g>
</svg>