<svg width="577" height="512" viewBox="0 0 577 512" fill="none" xmlns="http://www.w3.org/2000/svg">
<g clip-path="url(#clip0_40_27)">
<path fill-rule="evenodd" clip-rule="evenodd" d="M569.5 65.5C580.998 98.061 578.332 129.395 561.5 159.5C556.421 166.641 551.087 173.641 545.5 180.5C534.61 190.193 522.276 197.693 508.5 203C507.941 203.725 507.608 204.558 507.5 205.5C514.865 252.548 518.032 299.881 517 347.5C507.542 415.621 471.042 462.788 407.5 489C383.979 497.711 359.979 504.211 335.5 508.5C295.817 513.946 256.484 512.112 217.5 503C174.275 495.379 135.609 478.046 101.5 451C78.657 430.152 65.157 404.318 61 373.5C60.266 349.307 60.766 325.14 62.5 301C61.966 285.994 61.3 270.994 60.5 256C60.327 242.718 61.994 229.718 65.5 217C45.328 207.659 28.995 193.826 16.5 175.5C-1.86901 144.045 -4.36901 111.379 8.99999 77.5C33.094 32.536 70.594 13.702 121.5 21C130.664 22.832 139.497 25.666 148 29.5C152.774 25.363 158.274 22.696 164.5 21.5C170.314 21.905 175.647 23.739 180.5 27C189.833 33 199.167 39 208.5 45C214.202 47.707 220.202 49.207 226.5 49.5C227.263 50.268 228.263 50.768 229.5 51C244.524 51.356 259.524 50.856 274.5 49.5C287.161 48.985 299.827 48.652 312.5 48.5C334.337 48.762 355.67 52.095 376.5 58.5C384.639 45.02 394.639 33.02 406.5 22.5C419.914 12.792 434.581 5.79198 450.5 1.49998C491.984 -4.28902 526.484 8.37798 554 39.5C559.961 47.767 565.128 56.433 569.5 65.5Z" fill="#F8F9F8"/>
<path fill-rule="evenodd" clip-rule="evenodd" d="M460.5 8.50001C505.916 5.78301 539.083 24.449 560 64.5C576.078 107.92 567.245 145.42 533.5 177C530.167 179.333 526.833 181.667 523.5 184C514.349 188.911 505.016 193.245 495.5 197C499.368 226.115 502.868 255.282 506 284.5C507.738 312.391 506.071 340.058 501 367.5C492.865 409 471.032 440.833 435.5 463C390.781 488.388 342.615 500.555 291 499.5C235.393 499.14 182.893 486.306 133.5 461C123.893 455.058 114.56 448.725 105.5 442C88.843 425.862 78.009 406.362 73 383.5C72.415 378.489 71.749 373.489 71 368.5C72.477 326.183 72.811 283.85 72 241.5C73.705 230.035 75.705 218.701 78 207.5C34.739 193.72 11.906 164.053 9.5 118.5C12.15 79.686 31.15 52.186 66.5 36C95.998 26.069 123.998 29.236 150.5 45.5C152.89 41.726 155.057 37.726 157 33.5C163.24 26.041 170.073 25.541 177.5 32C189.556 45.863 204.556 54.863 222.5 59C252.822 58.001 283.155 57.334 313.5 57C337.504 58.278 360.504 63.778 382.5 73.5C396.841 37.685 422.841 16.019 460.5 8.50001Z" fill="#0D2C27"/>
<path fill-rule="evenodd" clip-rule="evenodd" d="M506.5 184.5C505.668 183.671 506.001 182.838 507.5 182C546.686 158.789 562.519 124.622 555 79.5C544.41 47.579 522.576 28.412 489.5 22C461.112 18.272 435.779 25.272 413.5 43C408.965 47.703 404.298 52.203 399.5 56.5C410.993 37.859 427.327 25.359 448.5 19C496.132 9.23498 531.299 25.735 554 68.5C568.283 108.645 559.783 143.145 528.5 172C521.595 176.952 514.261 181.118 506.5 184.5Z" fill="#54897E"/>
<path fill-rule="evenodd" clip-rule="evenodd" d="M506.5 184.5C500.751 187.105 494.751 188.438 488.5 188.5C487.795 191.089 487.795 193.756 488.5 196.5C488.167 196.5 487.833 196.5 487.5 196.5C487.5 195.5 487.5 194.5 487.5 193.5C480.798 193.664 474.131 193.331 467.5 192.5C467.167 192.5 466.833 192.5 466.5 192.5C424.852 174.35 398.019 143.35 386 99.5C384.948 92.872 384.448 86.206 384.5 79.5C387.001 80.946 389.667 81.446 392.5 81C391.506 79.671 390.506 78.338 389.5 77C391.672 69.492 395.005 62.659 399.5 56.5C404.298 52.203 408.965 47.703 413.5 43C435.779 25.272 461.112 18.272 489.5 22C522.576 28.412 544.41 47.579 555 79.5C562.519 124.622 546.686 158.789 507.5 182C506.001 182.838 505.668 183.671 506.5 184.5Z" fill="#314E49"/>
<path fill-rule="evenodd" clip-rule="evenodd" d="M384.5 79.5C384.448 86.206 384.948 92.872 386 99.5C398.019 143.35 424.852 174.35 466.5 192.5C466.34 194.199 466.506 195.866 467 197.5C489.953 249.217 493.62 302.217 478 356.5C461.131 403.702 429.965 437.869 384.5 459C343.082 477.235 299.749 484.569 254.5 481C226.06 478.636 198.394 472.969 171.5 464C168.518 463.502 165.518 463.335 162.5 463.5C138.678 454.849 118.178 441.182 101 422.5C88.986 405.461 82.319 386.461 81 365.5C80.888 328.148 80.055 290.815 78.5 253.5C78.89 226.833 86.057 202.166 100 179.5C110.777 162.216 123.61 146.549 138.5 132.5C139.198 130.333 140.531 128.5 142.5 127C145.833 124.333 149.167 121.667 152.5 119C146.762 119.883 140.928 120.383 135 120.5C130.32 120.688 125.82 120.022 121.5 118.5C116.852 111.909 115.019 104.576 116 96.5C116.414 96.043 116.914 95.709 117.5 95.5C125.744 101.288 134.744 105.455 144.5 108C150.5 108.667 156.5 108.667 162.5 108C167.243 107.365 171.576 105.865 175.5 103.5C176.434 102.432 176.768 101.099 176.5 99.5C193.72 95.364 210.387 89.698 226.5 82.5C216.772 82.006 207.106 82.839 197.5 85C180.97 88.819 169.47 82.986 163 67.5C161.736 65.393 159.903 64.393 157.5 64.5C157.5 60.5 157.5 56.5 157.5 52.5C158.193 47.107 160.027 42.107 163 37.5C165.933 33.684 169.099 33.517 172.5 37C185.618 52.06 201.951 61.727 221.5 66C255.478 64.84 289.478 64.506 323.5 65C329.216 65.282 334.883 65.948 340.5 67C355.045 71.683 369.712 75.85 384.5 79.5Z" fill="#FDFEFD"/>
<path fill-rule="evenodd" clip-rule="evenodd" d="M123.5 40.5C83.93 36.077 53.097 50.411 31 83.5C12.938 121.352 18.771 155.019 48.5 184.5C32.882 172.666 23.049 156.999 19 137.5C12.624 98.937 25.791 69.103 58.5 48C79.162 36.973 100.829 34.473 123.5 40.5Z" fill="#53897D"/>
<path fill-rule="evenodd" clip-rule="evenodd" d="M123.5 40.5C132.613 43.64 141.113 47.973 149 53.5C148.427 70.776 153.26 86.276 163.5 100C159.594 101.434 155.594 101.767 151.5 101C138.009 78.757 118.342 69.757 92.5 74C62.716 84.403 49.883 105.236 54 136.5C59.943 156.943 73.109 170.276 93.5 176.5C88.737 184.024 85.07 192.024 82.5 200.5C69.569 198.366 58.236 193.032 48.5 184.5C18.771 155.019 12.938 121.352 31 83.5C53.097 50.411 83.93 36.077 123.5 40.5Z" fill="#304D48"/>
<path fill-rule="evenodd" clip-rule="evenodd" d="M471.5 48.5C508.836 48.014 529.836 66.18 534.5 103C532.005 132.494 516.338 150.494 487.5 157C456.859 159.099 436.692 145.599 427 116.5C422.411 80.952 437.245 58.286 471.5 48.5Z" fill="#0A2B25"/>
<path fill-rule="evenodd" clip-rule="evenodd" d="M468.5 56.5C495.393 53.354 514.226 64.02 525 88.5C531.071 116.861 520.905 136.694 494.5 148C465.9 154.618 446.067 144.451 435 117.5C428.927 87.643 440.093 67.31 468.5 56.5Z" fill="#95FAE2"/>
<path fill-rule="evenodd" clip-rule="evenodd" d="M157.5 52.5C157.5 56.5 157.5 60.5 157.5 64.5C159.903 64.393 161.736 65.393 163 67.5C169.47 82.986 180.97 88.819 197.5 85C207.106 82.839 216.772 82.006 226.5 82.5C210.387 89.698 193.72 95.364 176.5 99.5C176.768 101.099 176.434 102.432 175.5 103.5C175.657 102.127 175.49 100.793 175 99.5C169.29 95.784 164.957 90.784 162 84.5C157.214 74.103 155.714 63.436 157.5 52.5Z" fill="#D5FAF1"/>
<path fill-rule="evenodd" clip-rule="evenodd" d="M98.5 79.5C116.151 78.496 130.485 84.829 141.5 98.5C140.635 99.583 139.635 99.749 138.5 99C132.293 95.397 125.96 92.064 119.5 89C111.571 88.764 107.904 92.764 108.5 101C108.825 107.133 110.325 112.967 113 118.5C116.467 124.607 120.3 130.44 124.5 136C115.201 145.631 107.034 156.131 100 167.5C99.261 168.574 98.261 169.241 97 169.5C68.915 161.356 56.915 142.69 61 113.5C67.397 95.262 79.897 83.929 98.5 79.5Z" fill="#94F9E1"/>
<path fill-rule="evenodd" clip-rule="evenodd" d="M121.5 118.5C125.82 120.022 130.32 120.688 135 120.5C140.928 120.383 146.762 119.883 152.5 119C149.167 121.667 145.833 124.333 142.5 127C140.531 128.5 139.198 130.333 138.5 132.5C138.99 130.052 138.157 128.385 136 127.5C133.501 128.083 131.501 129.416 130 131.5C126.944 127.284 124.111 122.951 121.5 118.5Z" fill="#D3F8EF"/>
<path fill-rule="evenodd" clip-rule="evenodd" d="M373.5 161.5C397.972 160.818 418.138 169.818 434 188.5C457.594 219.956 468.761 255.456 467.5 295C468.524 325.686 461.691 354.52 447 381.5C436.37 401.132 420.537 414.632 399.5 422C374.915 426.583 354.082 419.749 337 401.5C332.76 396.683 328.76 391.683 325 386.5C315.813 369.309 304.313 353.809 290.5 340C261.689 320.237 236.189 323.737 214 350.5C206.573 364.848 197.073 377.681 185.5 389C159.323 405.715 135.823 402.548 115 379.5C96.1449 353.271 88.1449 323.938 90.9999 291.5C92.8089 263.705 103.309 239.872 122.5 220C150.018 200.714 174.851 203.88 197 229.5C205.121 242.621 215.621 253.455 228.5 262C259.039 275.499 283.206 267.999 301 239.5C310.058 221.045 320.392 203.378 332 186.5C343.382 173.901 357.215 165.568 373.5 161.5Z" fill="#314E49"/>
<path fill-rule="evenodd" clip-rule="evenodd" d="M466.5 192.5C466.833 192.5 467.167 192.5 467.5 192.5C473.744 195.322 480.411 196.656 487.5 196.5C487.833 196.5 488.167 196.5 488.5 196.5C491.664 223.812 494.83 251.145 498 278.5C502.682 320.059 497.015 360.059 481 398.5C469.355 425.64 450.521 446.14 424.5 460C394.508 474.749 362.842 483.749 329.5 487C271.717 492.9 216.05 485.066 162.5 463.5C165.518 463.335 168.518 463.502 171.5 464C198.394 472.969 226.06 478.636 254.5 481C299.749 484.569 343.082 477.235 384.5 459C429.965 437.869 461.131 403.702 478 356.5C493.62 302.217 489.953 249.217 467 197.5C466.506 195.866 466.34 194.199 466.5 192.5Z" fill="#D5FAF1"/>
<path fill-rule="evenodd" clip-rule="evenodd" d="M467.5 192.5C474.131 193.331 480.798 193.664 487.5 193.5C487.5 194.5 487.5 195.5 487.5 196.5C480.411 196.656 473.744 195.322 467.5 192.5Z" fill="#5F9489"/>
<path fill-rule="evenodd" clip-rule="evenodd" d="M152.5 223.5C165.883 221.68 177.049 225.68 186 235.5C187.942 241.89 186.109 246.723 180.5 250C167.205 253.968 155.705 251.134 146 241.5C141.665 233.168 143.832 227.168 152.5 223.5Z" fill="#94F9E1"/>
<path fill-rule="evenodd" clip-rule="evenodd" d="M152.5 255.5C171.916 253.017 186.749 260.017 197 276.5C206.79 295.873 208.123 315.873 201 336.5C191.884 358.802 175.384 368.969 151.5 367C132.127 360.288 120.627 346.788 117 326.5C111.891 301.922 118.391 281.088 136.5 264C141.483 260.344 146.816 257.511 152.5 255.5Z" fill="#010101"/>
<path fill-rule="evenodd" clip-rule="evenodd" d="M169.5 282.5C187.37 282.547 195.204 291.547 193 309.5C188.286 323.946 179.119 328.113 165.5 322C157.578 313.922 155.411 304.422 159 293.5C161.357 288.645 164.857 284.979 169.5 282.5Z" fill="#FBFBFB"/>
<path fill-rule="evenodd" clip-rule="evenodd" d="M146.5 324.5C154.505 326.154 156.671 330.821 153 338.5C146.592 343.307 142.758 341.641 141.5 333.5C141.904 329.771 143.571 326.771 146.5 324.5Z" fill="#F1F1F1"/>
<path fill-rule="evenodd" clip-rule="evenodd" d="M357.5 220.5C368.735 218.413 378.235 221.413 386 229.5C387.493 236.034 385.327 240.867 379.5 244C369.167 248.667 358.833 248.667 348.5 244C340.175 236.793 340.508 230.127 349.5 224C352.309 222.907 354.976 221.74 357.5 220.5Z" fill="#94F9E1"/>
<path fill-rule="evenodd" clip-rule="evenodd" d="M358.5 252.5C379.353 251.008 394.853 259.342 405 277.5C416.587 300.672 416.254 323.672 404 346.5C386.989 368.464 366.822 371.964 343.5 357C325.874 339.451 319.04 318.285 323 293.5C326.945 272.739 338.778 259.072 358.5 252.5Z" fill="#010101"/>
<path fill-rule="evenodd" clip-rule="evenodd" d="M373.5 279.5C390.157 280.669 397.657 289.669 396 306.5C391.755 319.707 383.255 323.874 370.5 319C360.82 309.536 358.987 298.703 365 286.5C367.441 283.546 370.275 281.213 373.5 279.5Z" fill="#FAFAFA"/>
<path fill-rule="evenodd" clip-rule="evenodd" d="M355.5 324.5C358.961 324.146 361.461 325.479 363 328.5C364.193 333.152 363.36 337.319 360.5 341C353.032 340.965 350.198 337.132 352 329.5C352.997 327.677 354.164 326.01 355.5 324.5Z" fill="#F5F5F5"/>
<path fill-rule="evenodd" clip-rule="evenodd" d="M248.5 347.5C256.759 346.917 264.759 348.084 272.5 351C278.97 355.126 281.137 360.959 279 368.5C273.941 382.946 263.774 389.779 248.5 389C237.216 382.742 231.383 373.242 231 360.5C234.655 353.103 240.488 348.769 248.5 347.5Z" fill="#092924"/>
<path fill-rule="evenodd" clip-rule="evenodd" d="M300.5 391.5C301.5 391.5 302.5 391.5 303.5 391.5C303.612 408.596 295.112 417.596 278 418.5C267.902 418.202 260.069 413.869 254.5 405.5C245.567 416.405 234.233 419.905 220.5 416C211.262 412.256 207.262 405.423 208.5 395.5C209.833 395.5 211.167 395.5 212.5 395.5C211.423 404.853 215.423 410.686 224.5 413C239.428 414.965 249.595 409.132 255 395.5C256.967 400.884 260.133 405.717 264.5 410C278.059 417.581 289.226 415.081 298 402.5C298.974 398.827 299.807 395.16 300.5 391.5Z" fill="#13302B"/>
</g>
<defs>
<clipPath id="clip0_40_27">
<rect width="577" height="512" fill="white"/>
</clipPath>
</defs>
</svg>
