<?xml version="1.0" encoding="UTF-8"?>
<svg id="loose_hand" data-name="loose hand" xmlns="http://www.w3.org/2000/svg" viewBox="0 0 1327.75 1393.44">
  <defs>
    <style>
      .cls-1 {
        fill: #072722;
        stroke-width: 4px;
      }

      .cls-1, .cls-2, .cls-3 {
        stroke: #000;
        stroke-miterlimit: 10;
      }

      .cls-2 {
        fill: none;
        stroke-linecap: round;
      }

      .cls-2, .cls-3 {
        stroke-width: 5px;
      }

      .cls-3 {
        fill: #348276;
      }
    </style>
  </defs>
  <g id="position_1" data-name="position 1">
    <path id="hand_1" data-name="hand 1" class="cls-1" d="M707.88,1027.53c4.86,19.36,13.5,40.5,13.5,40.5,3.95,9.68,7.7,17.51,10.38,22.85,16.2-4.42,40.21-12.56,66.47-28.04,63.76-37.6,93.01-90.34,106.97-116.32,19.45-36.18,30.98-57.62,22.85-82.05-10.34-31.08-48.44-54.72-72.7-46.73-12.63,4.16-12.47,13.92-27,27-29.83,26.84-56.54,9.13-85.16,27-49.25,30.76-42.23,128.26-35.31,155.78Z"/>
    <g id="thumbs_up" data-name="thumbs up">
      <path class="cls-3" d="M946.98,896.08c-19.59,4.06-35.06-1.89-45.18-5.78-11.61-4.47-41.39-15.92-50.85-45.13-.85-2.62-6.55-21.06.7-40.37,5.43-14.45,13.32-16.63,19.04-30.37,2.08-5,7.74-23.2,1.34-42.13-4.74-14.03-12.25-16.78-10.8-25.24,1.69-9.82,13.85-17.97,24.86-18.93,20.44-1.78,38.15,21.11,44.27,39.41,6.15,18.39,1.36,34.41-.27,39.19-6.49,19.08-20.25,29.02-24.7,31.97,1.52-3.85,4.2-9.4,8.88-15.09,3.24-3.92,11.06-13.15,24.8-17.11,3.69-1.06,12.18-3.02,22.3-.88,19.34,4.09,29.72,19.8,32.32,23.74,14.58,22.08,12.49,53.12-1.67,75.31-2.2,3.46-16.79,25.54-45.05,31.4Z"/>
      <path class="cls-2" d="M912.2,790.88c-6.01,4.44-15.84,19.54-14.38,24.26,1.63,5.28,8.29,7.18,10.41,7.78,18.32,5.22,37.22-12.12,37.8-11.23.45.71-10.29,12.98-26.8,13.6-7.58.29-13.59-1.99-16.98-3.62-1.51,2-8.19,15.94-7.32,22.35,1.53,11.25,15.3,16.03,16.56,16.45,18.71,6.2,39.09-10.13,39.83-8.74.44.83-6.7,6.95-16.34,9.91-13.99,4.3-25.99-.28-29.72-1.88-1.95,3.86-.99,1.23.32,7.88,3.56,18.13,29.76,23.89,33.02,24.56,25.89,5.34,46.56-19.89,50.23-22.99"/>
    </g>
  </g>
</svg>