<?xml version="1.0" encoding="UTF-8"?>
<svg id="loose_hand" data-name="loose hand" xmlns="http://www.w3.org/2000/svg" viewBox="0 0 1327.75 1393.44">
  <defs>
    <style>
      .cls-1 {
        fill: #fff;
      }

      .cls-1, .cls-2, .cls-3, .cls-4 {
        stroke: #000;
        stroke-miterlimit: 10;
      }

      .cls-2 {
        fill: #072722;
        stroke-width: 4px;
      }

      .cls-3 {
        fill: #314e49;
        stroke-width: .25px;
      }

      .cls-4 {
        fill: #348276;
        stroke-width: 5px;
      }
    </style>
  </defs>
  <g id="position_1" data-name="position 1">
    <path id="hand_1" data-name="hand 1" class="cls-2" d="M707.88,1027.53c4.86,19.36,13.5,40.5,13.5,40.5,3.95,9.68,7.7,17.51,10.38,22.85,16.2-4.42,40.21-12.56,66.47-28.04,63.76-37.6,93.01-90.34,106.97-116.32,19.45-36.18,30.98-57.62,22.85-82.05-10.34-31.08-48.44-54.72-72.7-46.73-12.63,4.16-12.47,13.92-27,27-29.83,26.84-56.54,9.13-85.16,27-49.25,30.76-42.23,128.26-35.31,155.78Z"/>
    <g id="hi">
      <path class="cls-4" d="M846.78,837.74c.04-2.88.48-2.76,1.82-16.36,1.44-14.62,2.16-21.93,2.08-29.34-.19-17.01-3.46-18.13-1.56-28.56,1.24-6.78,3.2-17.55,11.68-21.03,6.95-2.85,16.07.08,20.51,5.71,6.15,7.8,2.29,19.5,3.63,19.73,1.54.26,4.03-15.34,12.2-32.97,8.43-18.18,15.58-22.72,18.69-24.41,3.24-1.75,11.96-6.45,19.47-2.34,6.14,3.36,9.46,11.51,8.31,20.51-2.2,2.21-5.06,5.33-8.05,9.35-9.14,12.31-13.3,24.9-12.72,25.18.27.13,1.53-2.35,10.13-16.1,6.05-9.67,8.32-13.07,12.98-15.58,1.54-.83,5.34-2.82,10.39-2.6,8.52.38,17.71,6.95,18.17,14.8.15,2.58-.67,4.82-1.56,6.49-12.49,18.57-16.65,23.93-17.14,23.63-.73-.45,5.65-14.02,17.14-20.51,1.7-.96,3.37-1.69,5.45-1.73,6.68-.14,12.66,6.85,14.8,12.81,2.72,7.58-.42,14.45-3.55,22.67-8.48,22.28-3.16,18.39-11.77,41.2-11.72,31.04-17.59,46.55-30.81,55.39-23.56,15.74-52.72,6.23-55.74,5.19-24.3-8.33-44.87-31.26-44.57-51.15Z"/>
      <path class="cls-1" d="M882.27,801.86c11.38-10.42,30.35-12.5,45.03-6.47,15.19,6.23,22.37,19.74,22.04,31.55-.47,16.49-15.74,33.85-36.41,34.38-19.47.49-33.45-14.23-37.84-26.69-.92-2.61-6.69-20.06,7.19-32.76Z"/>
      <path class="cls-3" d="M934.87,828.27c-.14,2.26-.74,4.47-2.54,6.23-2.42,2.35-6.66,1.97-9.24-.48-1.19-1.12-2.13-2.34-3.17-3.5-2.39-2.63-5.44-3.95-8.97-3.73-1.6.1-3.13.62-4.4,1.2-1.25.58-2.12,1.49-3.13,2.27-.93.72-1.75,1.51-2.75,2.18-3.55,2.33-8.1,2.04-11.9-1.11-2.91-2.44-3.96-5.39-3.91-8.51.04-4.34,1.92-8.46,5.79-11.52,1.76-1.41,3.91-2.32,6.37-2.56,3.75-.34,6.42,1.13,7.88,3.81.69,1.28,1.16,2.6,1.88,3.88.72,1.27,1.39,2.58,2.47,3.74,2.57,2.76,7.41,3.64,10.63,1.86,1.36-.75,2.48-1.72,3.65-2.65,3.19-2.53,7.12-2.37,9.54,1.28,1.51,2.36,1.97,4.99,1.81,7.62Z"/>
    </g>
  </g>
</svg>