<?xml version="1.0" encoding="UTF-8"?>
<svg id="loose_hand" data-name="loose hand" xmlns="http://www.w3.org/2000/svg" viewBox="0 0 1327.75 1393.44">
  <defs>
    <style>
      .cls-1 {
        fill: #072722;
        stroke-width: 4px;
      }

      .cls-1, .cls-2 {
        stroke: #000;
        stroke-miterlimit: 10;
      }

      .cls-2 {
        fill: #348276;
        stroke-width: 5px;
      }
    </style>
  </defs>
  <g id="position_1" data-name="position 1">
    <path id="hand_1" data-name="hand 1" class="cls-1" d="M707.88,1027.53c4.86,19.36,13.5,40.5,13.5,40.5,3.95,9.68,7.7,17.51,10.38,22.85,16.2-4.42,40.21-12.56,66.47-28.04,63.76-37.6,93.01-90.34,106.97-116.32,19.45-36.18,30.98-57.62,22.85-82.05-10.34-31.08-48.44-54.72-72.7-46.73-12.63,4.16-12.47,13.92-27,27-29.83,26.84-56.54,9.13-85.16,27-49.25,30.76-42.23,128.26-35.31,155.78Z"/>
    <g id="_2_fing" data-name="2 fing">
      <path class="cls-2" d="M872.19,773.89c-6.12-7.91-.65-14.08-2.85-34.18-2.33-21.37-9.48-23.24-10.17-42.73-.39-10.88-.93-26.23,9.36-33.37,7.49-5.19,19.11-4.94,26.45.41,5.11,3.72,6.47,8.68,10.17,32.96,4.7,30.88,5.43,42.09,5.29,54.12-.27,23.58-3.57,27.22-5.7,28.89-8.43,6.6-25.32,3.24-32.55-6.1Z"/>
      <path class="cls-2" d="M912.88,779.18c-2.5-4.95-1.84-9.88,3.26-26.04,7.05-22.39,11.39-35.82,22.38-55.34,13.39-23.77,19.19-25.55,21.97-26.04,8.78-1.55,19.07,4.24,24.01,12.21,2.65,4.28,6.56,13.7-13.83,62.26-16.5,39.29-23.37,43.37-28.89,44.76-10.57,2.66-24.21-2.53-28.89-11.8Z"/>
      <path class="cls-2" d="M875.05,870.87c-12.09-4.75-15.78-7.55-17.5-8.95-22.64-18.47-19.58-52.57-19.12-56.97,1.01-9.7,2.34-22.4,12.21-31.74,9.56-9.05,21.4-9.5,38.66-10.17,17.79-.69,39.14-1.52,49.24,12.21,3.73,5.08,6.86,13.41,4.07,20.35-3.88,9.63-17.5,12.31-25.23,13.83-8.83,1.74-16.92-.25-17.09.81-.13.84,4.99.91,8.95,4.48,6.93,6.25,5.27,18.69,4.88,21.57-1.46,10.88-7.27,18.69-6.51,19.12.43.24,2.33-2.17,3.53-3.97,5.72-8.59,5.39-17.84,5.29-19.73-.51-9.67-5.15-16.38-7.12-18.92,2.4.38,6.18.71,10.68,0,2.15-.34,14.1-2.23,20.75-11.5,3.62-5.03,2.39-7.68,7.12-12.82,1.94-2.11,3.32-2.93,8.14-6.21,14.4-9.79,13.64-10.3,16.11-10.92,7.95-2.01,18.18,2.7,23.33,10.31,7.7,11.38,1.3,25.26-.81,29.84-5.26,11.41-14.54,16.67-20.07,19.8-6.11,3.47-11.16,6.33-16.55,4.61-7.74-2.46-10.46-12.55-11.39-16-2.5-9.28,1.08-18.34.54-18.45-.25-.05-.84,1.76-1.25,3.28-2.26,8.52-.48,15.71-.16,16.93,1.38,5.3,2.61,10.02,6.92,13.02,6.18,4.31,14.22,1.95,16.38,1.32,10.42-3.05,14.22-11.45,16.48-10.27,2.54,1.33.07,13.23-5.09,24.21-3.87,8.23-10.84,23.07-25.63,31.23-22.26,12.28-48.59,1.93-79.74-10.31Z"/>
    </g>
  </g>
</svg>