<?xml version="1.0" encoding="UTF-8"?>
<svg id="loose_hand" data-name="loose hand" xmlns="http://www.w3.org/2000/svg" viewBox="0 0 1327.75 1393.44">
  <defs>
    <style>
      .cls-1 {
        fill: #072722;
        stroke-width: 4px;
      }

      .cls-1, .cls-2 {
        stroke: #000;
        stroke-miterlimit: 10;
      }

      .cls-2 {
        fill: #348276;
        stroke-width: 5px;
      }
    </style>
  </defs>
  <g id="position2">
    <g id="hand_2" data-name="hand 2">
      <path class="cls-1" d="M707.88,1027.53c4.86,19.36,13.5,40.5,13.5,40.5,3.95,9.68,7.7,17.51,10.38,22.85,13.54-19.27,34.68-42.54,66.32-55.19,49.65-19.85,78.31,5.16,102.13-15.32,38.77-33.34.59-132.13-18.04-169.36-10.97-21.9-21.41-34.96-26.81-33.27-9.38,2.93,6.92,46.78-11.31,63.22-21.25,19.16-64.34-26.06-100.85-9.22-49.24,22.71-40.04,136.96-35.31,155.78Z"/>
      <path class="cls-1" d="M836.38,943.78c-4.03-5.46-8.58-13.13-11.49-22.98-5.31-18.01.8-27.95,6.13-58.21,6.93-39.37,2.03-50.79,13.02-59.74,8.98-7.31,22.61-8.29,32.94-5.36,48.53,13.76,51.97,122.12,52.09,127.15.6,26.62-4.02,44.38-7.66,55.15-6.14,18.15-14.69,31.76-21.19,40.6"/>
    </g>
    <g id="heartin">
      <path class="cls-2" d="M912.13,714.66c3.18-7.07,7.22-12.02,10.16-15.1,4.95-5.18,8.71-9.12,13.75-8.76,4.62.33,8.63,4.15,9.84,7.95,1.41,4.43-1.07,8.47-2.97,11.46-5.67,8.93-11.39,17.9-17.66,27.5"/>
      <path class="cls-2" d="M844.58,814.53c-6.18-3.63-7.16-12.17-1.92-17.06s10.68-10.97,15.61-18.5c2.95-4.51,5.29-8.89,7.17-12.97.79,7.4,3.8,11.47,5.46,13.31,1.67,1.85,3.43,3.05,3.41,3.07-.02.03-4.51-2.4-7.05-7.11-.85-1.58-.85-2.23-2.33-10.3-1.42-7.71-1.67-8.45-1.25-10.18.18-.73,1.42-5.58,6.03-7.91,4.97-2.51,10.76-.55,13.88,2.45,1.69,1.61,2.43,3.37,3.07,5.04,3.96,10.31,4.61,19.12,4.67,19.12.05,0,.26-8.21-3.7-18.16-.6-1.51-1.18-2.77-1.66-3.75-.46-1.36-1.49-5.02-.11-9.23.51-1.57,1.96-6,6.26-7.62,4.29-1.62,8.32.74,8.99,1.14,3.01,1.76,4.82,4.66,6.71,10.24,3.94,11.6,3.96,22.18,3.87,22.19-.03,0,.2-4.5-.77-11.24-.96-6.68-2.35-16.28-7.23-19.68-.37-.26-1.15-.75-1.91-1.71-2.07-2.61-1.7-5.85-1.71-7.51-.02-5.3-3.93-5.86-9.1-15.82-2.97-5.71-4.62-8.88-4.1-13.09.53-4.26,3.42-9.43,7.97-10.92,8.35-2.74,17.53,8.54,18.89,10.21,1.59,1.96,4.24,8.33,9.47,20.99,2.96,7.17,4.15,10.29,5.38,14.34,1.56,5.13,2.44,9.27,3.07,12.29,1.19,5.66,1.98,9.41,2.3,14.08.39,5.57-.31,6.23-.88,16.5-.77,13.81.55,15.16-1.37,18.89-2.8,5.46-7.34,8.13-13.88,11.72-18.23,10.01-27.35,15.01-31.4,15.93-16.02,3.62-31.44-2.63-41.84-8.73Z"/>
      <path class="cls-2" d="M928.07,785.97c-2.54,4.6-5.18,6.11-7.2,6.61-2.7.67-4.13-.53-6.48.65-2.86,1.42-2.12,3.87-4.86,6.1-3.57,2.91-6.67.22-10.54,2.9-3.39,2.35-2.43,5.38-5.27,7.78-2.07,1.75-6.01,3.05-14.29.52"/>
    </g>
  </g>
</svg>