<?xml version="1.0" encoding="UTF-8"?>
<svg id="loose_hand" data-name="loose hand" xmlns="http://www.w3.org/2000/svg" viewBox="0 0 1327.75 1393.44">
  <defs>
    <style>
      .cls-1 {
        fill: #348276;
        stroke-linecap: round;
        stroke-linejoin: round;
        stroke-width: 5px;
      }

      .cls-1, .cls-2 {
        stroke: #000;
      }

      .cls-2 {
        fill: #072722;
        stroke-miterlimit: 10;
        stroke-width: 4px;
      }
    </style>
  </defs>
  <g id="position2">
    <g id="hand_2" data-name="hand 2">
      <path class="cls-2" d="M707.88,1027.53c4.86,19.36,13.5,40.5,13.5,40.5,3.95,9.68,7.7,17.51,10.38,22.85,13.54-19.27,34.68-42.54,66.32-55.19,49.65-19.85,78.31,5.16,102.13-15.32,38.77-33.34.59-132.13-18.04-169.36-10.97-21.9-21.41-34.96-26.81-33.27-9.38,2.93,6.92,46.78-11.31,63.22-21.25,19.16-64.34-26.06-100.85-9.22-49.24,22.71-40.04,136.96-35.31,155.78Z"/>
      <path class="cls-2" d="M836.38,943.78c-4.03-5.46-8.58-13.13-11.49-22.98-5.31-18.01.8-27.95,6.13-58.21,6.93-39.37,2.03-50.79,13.02-59.74,8.98-7.31,22.61-8.29,32.94-5.36,48.53,13.76,51.97,122.12,52.09,127.15.6,26.62-4.02,44.38-7.66,55.15-6.14,18.15-14.69,31.76-21.19,40.6"/>
    </g>
    <path id="fu" class="cls-1" d="M860.35,819.86c9.12,1.89,21.08,4.37,33.53-1.49,10.93-5.15,16.45-14.03,22.21-23.28,3.5-5.62,10.66-17.43,11.74-33.95.44-6.69,1.01-17.73-5.77-25.2-1.56-1.71-5.81-6.39-11.1-5.77-1.88.22-3.34,1.05-4.27,1.71.41,2.1.79,5.04.64,8.54-.47,10.77-5.72,18.9-5.98,18.79-.2-.08,2.72-4.91,3.84-12.6,1.23-8.38-.44-14.86-1.07-17.72-4.92-22.66,9.61-33.3,2.14-50.18-3.91-8.82-13.08-17.68-23.49-17.72-10.31-.05-17.44,8.57-19,10.46-7.89,9.54-7.58,21.07-7.26,33.31.27,10.1.65,24.46,8.54,37.37,1.92,3.14,5.64,8.42,8.11,16.87,1.46,4.97,1.95,9.26,2.14,12.17-.81-3.69-2.16-8.74-4.48-14.52-2.08-5.17-4.07-10.11-8.11-15.37-3.78-4.91-8.76-11.4-17.3-13.24-2.32-.5-10.54-2.27-16.44,3.2-5.15,4.78-4.97,11.77-4.91,13.03,4.72,3.44,8.06,6.88,10.25,9.4,3.5,4.03,7.8,8.99,9.82,16.66,1.05,3.97,1.14,7.39,1.07,9.61-.52-3.92-1.67-8.95-4.27-14.31-1.15-2.38-4.68-9.14-11.96-15.37-3.45-2.96-5.36-4.8-8.76-5.98-1.84-.64-8.69-3.02-14.52.85-5.3,3.52-6.06,9.76-6.41,12.6-.3,2.48-.87,7.15,2.14,10.89,1.41,1.76,3.12,2.7,4.27,3.2-.17-1.14-.31-3.1.43-5.34,1.35-4.11,4.64-6.1,5.55-6.62-.85.88-2.05,2.29-2.99,4.27-3.48,7.29-.22,15.32,1.28,19,5.7,14.03,24.63,31.38,50.39,36.73Z"/>
  </g>
</svg>