<?xml version="1.0" encoding="UTF-8"?>
<svg id="nose" xmlns="http://www.w3.org/2000/svg" viewBox="0 0 1200 1200">
  <defs>
    <style>
      .cls-1 {
        fill: #000;
        stroke-width: 0px;
      }

      .cls-2 {
        fill: #333;
        stroke-linecap: round;
        stroke-linejoin: round;
      }

      .cls-2, .cls-3 {
        stroke: #000;
        stroke-width: 5px;
      }

      .cls-3 {
        fill: none;
        stroke-miterlimit: 10;
      }
    </style>
  </defs>
  <path class="cls-1" d="M379.47,862.19c-.64-11.19,20.47-22.58,38.31-24.53,22.74-2.49,49.14,9.38,49.4,21.17.25,11.5-24.35,23.52-45.71,23.53-18.26,0-41.36-8.76-42.01-20.16Z"/>
  <path class="cls-2" d="M424.93,827.5c14.92.24,32.18-18.66,27.41-34.14-3.93-12.75-20.9-17.02-31.63-16.57-7.88.33-23,3.65-26.51,14.58-4.42,13.78,13.44,27.67,15.35,29.16,3.97,3.09,8.82,6.86,15.37,6.97Z"/>
  <line class="cls-3" x1="423.32" y1="857.84" x2="423.32" y2="827.5"/>
</svg>