<?xml version="1.0" encoding="UTF-8"?>
<svg id="nose" xmlns="http://www.w3.org/2000/svg" viewBox="0 0 1200 1200">
  <defs>
    <style>
      .cls-1 {
        fill: #ff7bac;
      }

      .cls-1, .cls-2, .cls-3, .cls-4 {
        stroke: #000;
        stroke-linecap: round;
        stroke-linejoin: round;
      }

      .cls-1, .cls-4 {
        stroke-width: 6px;
      }

      .cls-2 {
        fill: #333;
        stroke-width: 5px;
      }

      .cls-3 {
        fill: #fff;
        stroke-width: 10px;
      }

      .cls-4 {
        fill: #000;
      }
    </style>
  </defs>
  <path class="cls-4" d="M377.48,844h90.95c-1.48,13.98-6.37,52.9-20.27,77.77-16.63,29.74-40.58,29.37-56.16-7.62-10.31-24.49-13.49-56.8-14.52-70.14Z"/>
  <path class="cls-2" d="M424.56,827.07c14.92.24,32.18-18.66,27.41-34.14-3.93-12.75-20.9-17.02-31.63-16.57-7.88.33-23,3.65-26.51,14.58-4.42,13.78,13.44,27.67,15.35,29.16,3.97,3.09,8.82,6.86,15.37,6.97Z"/>
  <path class="cls-3" d="M476.44,836.25c-2.57,11.44-8.6,18.3-19.09,20.5-13.54,2.84-28.47-5.91-33.35-21.14-1.66,3.28-6.95,12.67-18.28,17.85-3.84,1.76-16.11,7.37-28.01.94-11.4-6.16-13.89-18.75-14.24-20.65"/>
  <path class="cls-1" d="M457.09,900.75c-2.02,6.17-4.38,12.15-7.12,17.6-.59,1.16-1.19,2.3-1.81,3.41-14.93,26.68-35.73,29.13-51.1,2.64-1.77-3.04-3.46-6.45-5.06-10.26-1.25-2.96-2.39-6.03-3.43-9.17,6-7.84,14.2-13.66,23.62-16.29,15.54-4.34,32.65.47,44.9,12.07Z"/>
</svg>