<?xml version="1.0" encoding="UTF-8"?>
<svg id="nose" xmlns="http://www.w3.org/2000/svg" viewBox="0 0 1200 1200">
  <defs>
    <style>
      .cls-1 {
        fill: #000;
        stroke-width: 0px;
      }

      .cls-2 {
        fill: #333;
      }

      .cls-2, .cls-3 {
        stroke: #000;
        stroke-linecap: round;
        stroke-linejoin: round;
        stroke-width: 5px;
      }

      .cls-3 {
        fill: none;
      }
    </style>
  </defs>
  <path class="cls-3" d="M423.32,823.19c-.39,1.83-3.17,16.1,6.44,27.06,4.87,5.56,10.76,7.79,13.79,8.68"/>
  <path class="cls-2" d="M424.92,827.5c14.92.24,32.18-18.66,27.41-34.14-3.93-12.75-20.9-17.02-31.63-16.57-7.88.33-23,3.65-26.51,14.58-4.42,13.78,13.44,27.67,15.35,29.16,3.97,3.09,8.82,6.86,15.37,6.97Z"/>
  <path class="cls-1" d="M407.02,918.85c6.34-12.22,20.11-35.83,45.03-60.01,21.98-21.32,42.82-33.57,54.71-39.74-4.59.37-32.42,3.1-60.7,28.45-34.83,31.22-38.79,68.47-39.04,71.29Z"/>
</svg>