<?xml version="1.0" encoding="UTF-8"?>
<svg id="nose" xmlns="http://www.w3.org/2000/svg" viewBox="0 0 1200 1200">
  <defs>
    <style>
      .cls-1 {
        fill: #ff7bac;
      }

      .cls-1, .cls-2, .cls-3, .cls-4 {
        stroke: #000;
      }

      .cls-1, .cls-2, .cls-4 {
        stroke-linecap: round;
        stroke-linejoin: round;
      }

      .cls-1, .cls-4 {
        stroke-width: 6px;
      }

      .cls-2 {
        fill: #333;
      }

      .cls-2, .cls-3 {
        stroke-width: 5px;
      }

      .cls-3 {
        fill: none;
        stroke-miterlimit: 10;
      }

      .cls-4 {
        fill: #000;
      }
    </style>
  </defs>
  <path class="cls-2" d="M424.73,827.5c14.92.24,32.18-18.66,27.41-34.14-3.93-12.75-20.9-17.02-31.63-16.57-7.88.33-23,3.65-26.51,14.58-4.42,13.78,13.44,27.67,15.35,29.16,3.97,3.09,8.82,6.86,15.37,6.97Z"/>
  <line class="cls-3" x1="423.13" y1="857.84" x2="423.13" y2="827.5"/>
  <path class="cls-4" d="M474.93,881.4c0,12.15-4.92,23.14-12.88,31.1-2.39,2.39-5.05,4.51-7.93,6.29-6.73,4.19-14.67,6.6-23.18,6.6h-15.62c-8.51,0-16.45-2.41-23.18-6.6-12.49-7.76-20.81-21.6-20.81-37.39,0-12.15,4.92-23.15,12.88-31.11,7.96-7.96,18.96-12.88,31.11-12.88h15.62c24.3,0,43.99,19.69,43.99,43.99Z"/>
  <path class="cls-1" d="M454.12,918.79c-6.73,4.19-14.67,6.6-23.18,6.6h-15.62c-8.51,0-16.45-2.41-23.18-6.6.49-16.69,14.18-30.08,30.99-30.08s30.5,13.39,30.99,30.08Z"/>
</svg>