<?xml version="1.0" encoding="UTF-8"?>
<svg id="nose" xmlns="http://www.w3.org/2000/svg" viewBox="0 0 1200 1200">
  <defs>
    <style>
      .cls-1 {
        fill: #39211d;
      }

      .cls-1, .cls-2 {
        stroke-width: 6px;
      }

      .cls-1, .cls-2, .cls-3, .cls-4 {
        stroke: #000;
        stroke-linecap: round;
        stroke-linejoin: round;
      }

      .cls-2 {
        fill: #ff7bac;
      }

      .cls-3 {
        fill: #333;
        stroke-width: 5px;
      }

      .cls-4 {
        fill: #fff;
        stroke-width: 10px;
      }
    </style>
  </defs>
  <path class="cls-3" d="M424.73,827.5c14.92.24,32.18-18.66,27.41-34.14-3.93-12.75-20.9-17.02-31.63-16.57-7.88.33-23,3.65-26.51,14.58-4.42,13.78,13.44,27.67,15.35,29.16,3.97,3.09,8.82,6.86,15.37,6.97Z"/>
  <path class="cls-2" d="M391.33,848.82c-.03,5.86.15,14.56,1.28,25.02,2.75,25.66,4.13,38.49,13.79,45.19,9.66,6.7,25.1,5.8,34.47-1.53,1.95-1.53,7.34-6.23,11.75-26.81,2.23-10.43,4.37-25.69,3.06-44.68"/>
  <path class="cls-1" d="M421.87,842.4c.85,6.46,1.29,12.09,1.53,16.6.38,7.05.31,12.47.25,16.6-.07,5.46-.29,10.14-.51,13.79"/>
  <path class="cls-4" d="M476.61,836.68c-2.57,11.44-8.6,18.3-19.09,20.5-13.54,2.84-28.47-5.91-33.35-21.14-1.66,3.28-6.95,12.67-18.28,17.85-3.84,1.76-16.11,7.37-28.01.94-11.4-6.16-13.89-18.75-14.24-20.65"/>
</svg>