<?xml version="1.0" encoding="UTF-8"?>
<svg id="nose" xmlns="http://www.w3.org/2000/svg" viewBox="0 0 1200 1200">
  <defs>
    <style>
      .cls-1 {
        fill: #000;
        stroke-width: 0px;
      }

      .cls-2 {
        fill: #333;
        stroke-linecap: round;
        stroke-linejoin: round;
      }

      .cls-2, .cls-3 {
        stroke: #000;
        stroke-width: 5px;
      }

      .cls-3 {
        fill: none;
        stroke-miterlimit: 10;
      }
    </style>
  </defs>
  <path class="cls-2" d="M424.73,827.5c14.92.24,32.18-18.66,27.41-34.14-3.93-12.75-20.9-17.02-31.63-16.57-7.88.33-23,3.65-26.51,14.58-4.42,13.78,13.44,27.67,15.35,29.16,3.97,3.09,8.82,6.86,15.37,6.97Z"/>
  <path class="cls-1" d="M341.91,883.38c15.12-7.34,45.55-19.62,85.53-18.69,35.26.82,62.21,11.54,76.91,18.69-4.04-5.26-28.92-36.59-72.59-40.25-53.78-4.51-87.34,37.04-89.84,40.25Z"/>
  <line class="cls-3" x1="423.13" y1="857.84" x2="423.13" y2="827.5"/>
</svg>