<?xml version="1.0" encoding="UTF-8"?>
<svg id="nose" xmlns="http://www.w3.org/2000/svg" viewBox="0 0 1200 1200">
  <defs>
    <style>
      .cls-1 {
        fill: #333;
        stroke-width: 5px;
      }

      .cls-1, .cls-2, .cls-3 {
        stroke: #000;
        stroke-linecap: round;
        stroke-linejoin: round;
      }

      .cls-2 {
        fill: #fff;
        stroke-width: 10px;
      }

      .cls-3 {
        fill: #000;
        stroke-width: 6px;
      }
    </style>
  </defs>
  <path class="cls-3" d="M377.65,844h90.95c-1.48,5.02-6.37,19.01-20.27,27.94-16.63,10.69-40.58,10.55-56.16-2.74-10.31-8.8-13.49-20.41-14.52-25.2Z"/>
  <path class="cls-1" d="M424.73,827.07c14.92.24,32.18-18.66,27.41-34.14-3.93-12.75-20.9-17.02-31.63-16.57-7.88.33-23,3.65-26.51,14.58-4.42,13.78,13.44,27.67,15.35,29.16,3.97,3.09,8.82,6.86,15.37,6.97Z"/>
  <path class="cls-2" d="M476.61,836.25c-2.57,11.44-8.6,18.3-19.09,20.5-13.54,2.84-28.47-5.91-33.35-21.14-1.66,3.28-6.95,12.67-18.28,17.85-3.84,1.76-16.11,7.37-28.01.94-11.4-6.16-13.89-18.75-14.24-20.65"/>
</svg>