<?xml version="1.0" encoding="UTF-8"?>
<svg id="nose" xmlns="http://www.w3.org/2000/svg" viewBox="0 0 1200 1200">
  <defs>
    <style>
      .cls-1 {
        fill: #333;
        stroke-width: 5px;
      }

      .cls-1, .cls-2 {
        stroke: #000;
        stroke-linecap: round;
        stroke-linejoin: round;
      }

      .cls-2 {
        fill: none;
        stroke-width: 10px;
      }
    </style>
  </defs>
  <path class="cls-1" d="M424.73,827.5c14.92.24,32.18-18.66,27.41-34.14-3.93-12.75-20.9-17.02-31.63-16.57-7.88.33-23,3.65-26.51,14.58-4.42,13.78,13.44,27.67,15.35,29.16,3.97,3.09,8.82,6.86,15.37,6.97Z"/>
  <path class="cls-2" d="M517.9,836.68c-4.45,11.44-14.88,18.3-33.04,20.5-23.44,2.84-49.29-5.91-57.73-21.14-2.87,3.28-12.04,12.67-31.64,17.85-6.65,1.76-27.89,7.37-48.48.94-19.74-6.16-24.05-18.75-24.64-20.65"/>
</svg>