<?xml version="1.0" encoding="UTF-8"?>
<svg id="nose" xmlns="http://www.w3.org/2000/svg" viewBox="0 0 1200 1200">
  <defs>
    <style>
      .cls-1 {
        fill: #333;
        stroke-width: 5px;
      }

      .cls-1, .cls-2 {
        stroke: #000;
        stroke-linecap: round;
        stroke-linejoin: round;
      }

      .cls-2 {
        fill: none;
        stroke-width: 10px;
      }
    </style>
  </defs>
  <path class="cls-1" d="M425.01,827.5c14.92.24,32.18-18.66,27.41-34.14-3.93-12.75-20.9-17.02-31.63-16.57-7.88.33-23,3.65-26.51,14.58-4.42,13.78,13.44,27.67,15.35,29.16,3.97,3.09,8.82,6.86,15.37,6.97Z"/>
  <path class="cls-2" d="M453.23,845.54c12.79-10.37,24.33-11.86,31.63-3.48,9.77,11.47-.1,30.27-19.23,33.27,4.04.59,16.72,3.24,20.84,14.68,1.85,3.09,3.95,18.4-9.08,24.85-12.17,5.51-22.43-5.46-23.86-6.85"/>
</svg>