<?xml version="1.0" encoding="UTF-8"?>
<svg id="nose" xmlns="http://www.w3.org/2000/svg" viewBox="0 0 1200 1200">
  <defs>
    <style>
      .cls-1 {
        fill: #ff7bac;
      }

      .cls-1, .cls-2, .cls-3 {
        stroke: #000;
        stroke-linecap: round;
        stroke-linejoin: round;
      }

      .cls-1, .cls-3 {
        stroke-width: 6px;
      }

      .cls-2 {
        fill: #333;
        stroke-width: 5px;
      }

      .cls-3 {
        fill: #000;
      }
    </style>
  </defs>
  <path class="cls-2" d="M424.36,826.68c14.92.24,32.18-18.66,27.41-34.14-3.93-12.75-20.9-17.02-31.63-16.57-7.88.33-23,3.65-26.51,14.58-4.42,13.78,13.44,27.67,15.35,29.16,3.97,3.09,8.82,6.86,15.37,6.97Z"/>
  <path class="cls-3" d="M522.63,898.24c-5.94,5.16-12.38,9.63-19.22,13.43-45.48,25.39-108.47,21.83-155.67-.67h-.01c-3.05-1.45-6.03-2.98-8.93-4.59-19.03-10.53-54.8-35.36-49.87-54.13,2.88-10.95,19.43-19.07,33.06-18.92,16.13.18,19.78,11.84,45.41,17.9,7.76,1.83,16.69,3.85,27.71,1.81,15.97-2.95,26.67-12.61,31.65-17.85,23.61,15.47,40.56,16.37,51.95,14,14.62-3.04,20.45-11.55,38.81-13.36,2.59-.25,28.35-2.83,34.73,8.25,7.21,12.54-12.35,39.12-29.62,54.13Z"/>
  <path class="cls-1" d="M503.41,911.67c-45.48,25.39-108.47,21.83-155.67-.67,19.13-3.35,46.1-5.43,76-5.43,31.86,0,60.41,2.37,79.67,6.1Z"/>
</svg>