<?xml version="1.0" encoding="UTF-8"?>
<svg id="eyes" xmlns="http://www.w3.org/2000/svg" viewBox="0 0 1200 1200">
  <defs>
    <style>
      .cls-1 {
        fill: #2d5c4e;
      }

      .cls-1, .cls-2, .cls-3 {
        stroke-width: 0px;
      }

      .cls-2 {
        fill: #031c17;
      }

      .cls-3 {
        fill: #041e19;
      }

      .cls-4 {
        fill: #072722;
      }

      .cls-4, .cls-5 {
        stroke: #000;
        stroke-miterlimit: 10;
        stroke-width: 3px;
      }

      .cls-5 {
        fill: none;
      }
    </style>
  </defs>
  <g id="base">
    <path class="cls-4" d="M595.38,828.9c11.84-13.46,30.56-45.19,31.2-87.94.08-5.41.3-90.72-51.77-114.88-3.49-1.62-24.17-11.22-45.39-4.25-7.94,2.6-12.74,6.47-40.42,34.04-28.13,28.01-30.57,31.38-39,34.75-16.37,6.54-36.78,5.66-52.48-2.84-12.18-6.59-15.02-14.25-34.75-46.1-22.69-36.62-34.3-55.11-47.51-63.82-6.37-4.2-30.28-18.69-58.15-13.47-33.3,6.23-51.27,36.68-63.11,56.73-31.53,53.41-26.12,108.4-23.4,132.61,3.74,33.26,7.92,70.54,38.29,98.57,8.46,7.81,29.4,28.53,59.57,28.37,31.73-.18,59.01-23.16,70.92-42.55,2.75-4.48,3.94-7.57,9.69-16.78,9.19-14.73,15.77-25.27,26.95-35.46,7.41-6.74,17.43-15.88,33.57-19.86,4.57-1.13,16.17-3.84,30.02-.24,20.79,5.41,32.43,21.35,38.77,30.02,8.09,11.07,5.41,12.34,13,23.17,6.75,9.63,19.09,27.23,40.89,32.38,29.48,6.97,54.31-13.99,56.97-16.31,1.06-.92,3.4-3.02,6.15-6.15Z"/>
    <g>
      <path class="cls-2" d="M481.33,800.15c-.79-1.27-1.76-2.7-2.96-4.34-6.34-8.67-17.98-24.61-38.77-30.02-13.85-3.61-25.45-.89-30.02.23-16.13,3.98-26.16,13.12-33.57,19.86-11.18,10.19-17.76,20.73-26.95,35.46-5.74,9.21-6.94,12.31-9.69,16.78-11.9,19.4-39.18,42.37-70.91,42.55-30.17.17-51.11-20.55-59.57-28.37-11.25-10.38-18.91-22.03-24.28-34.27,4.96,8.97,11.39,17.5,19.86,25.32,8.46,7.81,29.4,28.53,59.57,28.36,31.73-.17,59.01-23.15,70.91-42.55,2.75-4.47,3.95-7.57,9.7-16.78,9.18-14.72,15.76-25.27,26.94-35.46,7.41-6.74,17.44-15.88,33.57-19.85,4.57-1.13,16.17-3.85,30.02-.24,20.79,5.41,32.43,21.35,38.77,30.02,4.76,6.51,5.79,9.63,7.38,13.3Z"/>
      <path class="cls-3" d="M484.68,806.57c-1.61-2.61-2.55-4.59-3.34-6.42,1.62,2.59,2.54,4.56,3.34,6.42Z"/>
      <path class="cls-2" d="M626.58,740.97c-.65,42.74-19.37,74.47-31.2,87.93-2.75,3.13-5.09,5.23-6.15,6.15-2.66,2.32-27.49,23.28-56.97,16.31-21.81-5.16-34.14-22.75-40.89-32.39-4.17-5.95-5.24-9.01-6.7-12.4.64,1.04,1.39,2.18,2.28,3.45,6.75,9.63,19.09,27.23,40.89,32.38,29.48,6.97,54.31-13.99,56.97-16.31,1.06-.92,3.4-3.02,6.15-6.14,11.83-13.47,30.56-45.2,31.2-87.94.04-2.61.11-23.83-5.68-47.81,3.46,8.7,5.95,17.63,7.74,26.05,2.44,16.27,2.39,28.76,2.36,30.72Z"/>
      <path class="cls-3" d="M484.68,806.57c-1.61-2.61-2.55-4.59-3.34-6.42,1.62,2.59,2.54,4.56,3.34,6.42Z"/>
      <path class="cls-1" d="M616.48,684.2c-7.56-19.03-19.78-36.96-39.51-46.11-3.48-1.62-24.17-11.22-45.38-4.25-7.94,2.6-12.74,6.47-40.42,34.03-28.13,28.01-30.58,31.39-39.01,34.75-16.36,6.54-36.78,5.66-52.48-2.83-12.18-6.6-15.02-14.25-34.74-46.1-22.69-36.62-34.3-55.11-47.52-63.82-6.37-4.2-30.28-18.69-58.15-13.48-33.3,6.24-51.27,36.68-63.11,56.74-31.54,53.4-26.12,108.4-23.4,132.61.87,7.75,1.76,15.71,3.01,23.73-2.52-12.03-3.87-24.13-5.18-35.74-2.72-24.21-8.13-79.2,23.41-132.61,11.84-20.06,29.81-50.5,63.11-56.73,27.87-5.22,51.78,9.27,58.15,13.47,13.22,8.72,24.83,27.2,47.51,63.83,19.73,31.84,22.57,39.5,34.75,46.09,15.7,8.5,36.11,9.37,52.48,2.84,8.43-3.37,10.88-6.74,39-34.75,27.69-27.57,32.49-31.44,40.43-34.04,21.21-6.96,41.9,2.64,45.38,4.25,15.01,6.97,25.68,19.02,33.26,32.77,3.67,8.34,6.4,17.01,8.41,25.35Z"/>
    </g>
    <path class="cls-5" d="M595.38,828.9c11.84-13.46,30.56-45.19,31.2-87.94.08-5.41.3-90.72-51.77-114.88-3.49-1.62-24.17-11.22-45.39-4.25-7.94,2.6-12.74,6.47-40.42,34.04-28.13,28.01-30.57,31.38-39,34.75-16.37,6.54-36.78,5.66-52.48-2.84-12.18-6.59-15.02-14.25-34.75-46.1-22.69-36.62-34.3-55.11-47.51-63.82-6.37-4.2-30.28-18.69-58.15-13.47-33.3,6.23-51.27,36.68-63.11,56.73-31.53,53.41-26.12,108.4-23.4,132.61,3.74,33.26,7.92,70.54,38.29,98.57,8.46,7.81,29.4,28.53,59.57,28.37,31.73-.18,59.01-23.16,70.92-42.55,2.75-4.48,3.94-7.57,9.69-16.78,9.19-14.73,15.77-25.27,26.95-35.46,7.41-6.74,17.43-15.88,33.57-19.86,4.57-1.13,16.17-3.84,30.02-.24,20.79,5.41,32.43,21.35,38.77,30.02,8.09,11.07,5.41,12.34,13,23.17,6.75,9.63,19.09,27.23,40.89,32.38,29.48,6.97,54.31-13.99,56.97-16.31,1.06-.92,3.4-3.02,6.15-6.15Z"/>
  </g>
</svg>